<svg width="16" height="16" viewBox="0 0 16 16" fill="none" xmlns="http://www.w3.org/2000/svg">
<path d="M4.39228 4.58419C4.11186 5.14236 3.78163 5.54146 3.36659 5.9971C2.84926 6.56514 2.2377 7.0699 1.6782 7.59307C0.511168 8.68539 -0.427929 9.85624 0.202472 11.8428C1.04443 14.4947 5.03862 14.8929 8.14172 12.8593C9.59344 12.0465 10.8094 10.4525 11.2567 8.85724C11.7054 7.2597 11.2547 5.32542 10.4392 3.92216C9.75855 2.75199 8.73375 2.00606 7.3794 2C7.37491 2 7.36998 2 7.36549 2C5.69414 1.99978 5.08595 3.20673 4.39228 4.58419Z" fill="url(#paint0_radial_689_98)"/>
<path d="M9.65421 6.79799C9.05095 7.51813 8.79116 9.04522 8.97871 9.93721C9.23761 11.1644 10.0224 12.219 11.1405 12.792C12.5498 13.5139 14.0513 13.6056 15.2235 12.5972C16.8293 11.2144 15.6437 9.65992 14.375 8.71903C13.82 8.30624 13.6026 7.56816 13.2381 6.96221C13.0831 6.70467 12.9016 6.47068 12.6559 6.29591C12.3232 6.05878 11.9252 5.952 11.5205 5.952C10.817 5.95178 10.093 6.2746 9.65421 6.79799Z" fill="url(#paint1_linear_689_98)"/>
<path d="M11.2567 8.85715C11.5118 7.94991 11.4759 6.93431 11.2484 5.96874C10.6353 6.03963 10.0365 6.34227 9.65421 6.79813C9.05095 7.51805 8.79116 9.04537 8.97871 9.93713C9.10524 10.5384 9.35942 11.0974 9.71568 11.58C10.432 10.7874 10.9859 9.82339 11.2567 8.85715Z" fill="#9F1318"/>
<defs>
<radialGradient id="paint0_radial_689_98" cx="0" cy="0" r="1" gradientUnits="userSpaceOnUse" gradientTransform="translate(5.5169 2.23201) scale(10.8967 10.8967)">
<stop stop-color="#F7905B"/>
<stop offset="0.376404" stop-color="#F1471D"/>
<stop offset="0.668988" stop-color="#D91920"/>
<stop offset="0.730337" stop-color="#D91920"/>
<stop offset="1" stop-color="#B3161C"/>
</radialGradient>
<linearGradient id="paint1_linear_689_98" x1="9.66668" y1="7.10459" x2="14.8584" y2="13.2526" gradientUnits="userSpaceOnUse">
<stop stop-color="#FDDD04"/>
<stop offset="1" stop-color="#F68712"/>
</linearGradient>
</defs>
</svg>
