<svg width="120" height="138" viewBox="0 0 120 138" fill="none" xmlns="http://www.w3.org/2000/svg">
<path d="M50.6011 132.366C57.084 132.366 59.4834 126.608 59.4834 120.901C59.4834 115.323 56.8989 109.614 50.6011 109.614C44.2999 109.614 41.7188 115.323 41.7188 120.901C41.7188 126.608 44.1182 132.366 50.6011 132.366ZM50.6011 104.629C60.5265 104.629 66.1009 111.335 66.1009 120.901C66.1009 130.463 60.6157 137.35 50.6011 137.35C40.4502 137.35 35.0996 130.597 35.0996 120.901C35.0996 111.199 40.541 104.629 50.6011 104.629Z" fill="#5A5758"/>
<path d="M92.3288 105.172V117.953H79.6406V105.172H73.2939V134.725C73.3125 135.458 73.5026 135.986 73.8492 136.313C74.2126 136.641 74.8116 136.799 75.6563 136.806H79.6406V122.938H92.3288V134.995C92.3827 135.586 92.561 136.029 92.8656 136.313C93.2307 136.641 93.828 136.799 94.6726 136.806H98.6738V105.172H92.3288Z" fill="#5A5758"/>
<path d="M106.862 105.172V135.159C106.933 135.672 107.11 136.054 107.389 136.313C107.754 136.641 108.353 136.799 109.194 136.806H113.209V105.172H106.862Z" fill="#5A5758"/>
<path d="M24.454 136.326C25.0514 136.639 25.7479 136.785 26.5404 136.805H32.5186L18.9689 120.082L31.9751 105.171H24.1798L12.7602 118.766V105.171H6.41357V135.17C6.48256 135.691 6.65923 136.078 6.94022 136.342C7.21784 136.59 7.62502 136.743 8.18027 136.805H12.7602V122.123H12.8511L22.7732 134.931C23.3335 135.563 23.8904 136.03 24.454 136.326Z" fill="#5A5758"/>
<path d="M32.9421 19.3814C30.8389 23.5676 28.3622 26.5609 25.2495 29.9782C21.3695 34.2385 16.7828 38.0242 12.5865 41.948C3.83376 50.1404 -3.20947 58.9217 1.51854 73.8209C7.83321 93.7105 37.7896 96.697 61.0629 81.4445C71.9508 75.3486 81.0703 63.394 84.4253 51.4292C87.7904 39.4477 84.4102 24.9406 78.294 14.4162C73.1891 5.63992 65.5032 0.0453949 55.3455 -3.8147e-05C55.3119 -3.8147e-05 55.2748 -3.8147e-05 55.2412 -3.8147e-05C42.7061 -0.00171661 38.1446 9.05045 32.9421 19.3814Z" fill="url(#paint0_radial_675_3606)"/>
<path d="M72.4066 35.985C67.8822 41.386 65.9338 52.8392 67.3404 59.5291C69.2821 68.7327 75.1677 76.6425 83.5536 80.9398C94.1235 86.3543 105.385 87.0424 114.176 79.4793C126.22 69.1079 117.328 57.4495 107.813 50.3928C103.65 47.2969 102.02 41.7612 99.2856 37.2166C98.1229 35.285 96.7617 33.5301 94.9193 32.2194C92.4241 30.4409 89.4392 29.64 86.4039 29.64C81.1273 29.6383 75.6977 32.0596 72.4066 35.985Z" fill="url(#paint1_linear_675_3606)"/>
<path d="M84.4252 51.4284C86.3382 44.6241 86.069 37.0072 84.3629 29.7654C79.7644 30.2971 75.2737 32.5669 72.4066 35.9858C67.8822 41.3852 65.9338 52.8401 67.3404 59.5283C68.2893 64.0376 70.1957 68.2305 72.8676 71.8497C78.24 65.9052 82.3943 58.6752 84.4252 51.4284Z" fill="#9F1318"/>
<defs>
<radialGradient id="paint0_radial_675_3606" cx="0" cy="0" r="1" gradientUnits="userSpaceOnUse" gradientTransform="translate(41.3768 1.74006) scale(81.7256 81.7255)">
<stop stop-color="#F7905B"/>
<stop offset="0.376404" stop-color="#F1471D"/>
<stop offset="0.668988" stop-color="#D91920"/>
<stop offset="0.730337" stop-color="#D91920"/>
<stop offset="1" stop-color="#B3161C"/>
</radialGradient>
<linearGradient id="paint1_linear_675_3606" x1="72.5002" y1="38.2845" x2="111.438" y2="84.3948" gradientUnits="userSpaceOnUse">
<stop stop-color="#FDDD04"/>
<stop offset="1" stop-color="#F68712"/>
</linearGradient>
</defs>
</svg>
