<svg width="200" height="39" viewBox="0 0 200 39" fill="none" xmlns="http://www.w3.org/2000/svg">
<g clip-path="url(#clip0_663_1285)">
<path d="M13.7443 8.08522C12.8659 9.83193 11.833 11.0819 10.5341 12.5073C8.91606 14.2842 7.00259 15.8635 5.25228 17.5009C1.59856 20.9196 -1.33922 24.5826 0.633917 30.7996C3.26836 39.0969 15.7678 40.3433 25.4775 33.9804C30.0182 31.4372 33.8222 26.448 35.2246 21.4572C36.627 16.4579 35.2159 10.4055 32.6642 6.01429C30.5365 2.35267 27.3277 0.0186844 23.0925 -3.8147e-06C23.0774 -3.8147e-06 23.0623 -3.8147e-06 23.0472 -3.8147e-06C17.8171 -3.8147e-06 15.9144 3.77666 13.7443 8.08522Z" fill="url(#paint0_radial_663_1285)"/>
<path d="M30.2099 15.0138C28.3209 17.2666 27.5079 22.046 28.0945 24.8371C28.9053 28.6763 31.3622 31.9763 34.8592 33.7697C39.2691 36.0275 43.968 36.3143 47.6354 33.1602C52.6606 28.833 48.9522 23.9688 44.9815 21.0245C43.2441 19.7321 42.5634 17.4226 41.4227 15.5263C40.9382 14.7213 40.3696 13.9888 39.6019 13.4432C38.5611 12.7007 37.3161 12.3657 36.0489 12.3657C33.8479 12.3657 31.5814 13.3764 30.2099 15.0138Z" fill="url(#paint1_linear_663_1285)"/>
<path d="M35.224 21.4568C36.0205 18.6182 35.9083 15.4397 35.1967 12.4185C33.2782 12.6399 31.4042 13.5866 30.2103 15.0134C28.3213 17.2669 27.5083 22.0455 28.0941 24.8367C28.4923 26.7178 29.2866 28.4667 30.4022 29.9762C32.6428 27.497 34.3751 24.4787 35.224 21.4568Z" fill="#9F1318"/>
<path d="M70.2704 10.7293V14.8108C70.2704 14.9847 70.2035 15.1277 70.0706 15.2377C69.9361 15.3484 69.7823 15.4038 69.6076 15.4038H69.0498C68.8637 15.4038 68.7062 15.3484 68.5783 15.2377C68.4511 15.1277 68.3871 14.9847 68.3871 14.8108V4.34558C68.3871 4.18313 68.4511 4.04368 68.5783 3.92723C68.7062 3.81078 68.8637 3.75256 69.0498 3.75256H69.6076C69.7823 3.75256 69.9361 3.81078 70.0706 3.92723C70.2035 4.04368 70.2704 4.18313 70.2704 4.34558V9.22918H71.8748C72.0502 9.22918 72.2033 9.28741 72.3377 9.40385C72.4714 9.5203 72.5375 9.65975 72.5375 9.8222V10.1363C72.5375 10.3103 72.4714 10.4533 72.3377 10.564C72.2033 10.674 72.0502 10.7293 71.8748 10.7293H70.2704ZM70.6722 18.6823C70.6722 18.8569 70.6046 18.9993 70.4709 19.11C70.3372 19.2207 70.1834 19.276 70.0095 19.276H61.5318C61.3456 19.276 61.1889 19.2207 61.061 19.11C60.933 18.9993 60.869 18.8569 60.869 18.6823V15.3161C60.869 15.1536 60.933 15.0142 61.061 14.8977C61.1889 14.782 61.3456 14.7238 61.5318 14.7238H62.1248C62.2995 14.7238 62.4533 14.782 62.587 14.8977C62.7207 15.0142 62.7876 15.1536 62.7876 15.3161V17.7579H70.0095C70.1834 17.7579 70.3372 17.8161 70.4709 17.9325C70.6046 18.049 70.6722 18.1884 70.6722 18.3516V18.6823ZM60.7123 10.206C60.7123 10.7408 60.8777 11.2002 61.2098 11.584C61.5404 11.9679 61.9444 12.1598 62.4217 12.1598C62.8868 12.1598 63.2878 11.9679 63.625 11.584C63.9621 11.2002 64.1303 10.7408 64.1303 10.206C64.1303 9.68275 63.9621 9.22631 63.625 8.83671C63.2878 8.44711 62.8868 8.25232 62.4217 8.25232C61.9444 8.25232 61.5404 8.44711 61.2098 8.83671C60.8777 9.22631 60.7123 9.68275 60.7123 10.206ZM64.916 4.99107C64.916 5.16502 64.8491 5.30807 64.7147 5.41805C64.581 5.52874 64.4272 5.58409 64.2525 5.58409H60.294C60.1071 5.58409 59.9504 5.52874 59.8225 5.41805C59.6945 5.30807 59.6305 5.16502 59.6305 4.99107V4.76393C59.6305 4.60148 59.6945 4.46203 59.8225 4.34558C59.9504 4.22985 60.1071 4.17091 60.294 4.17091H64.2525C64.4272 4.17091 64.581 4.22985 64.7147 4.34558C64.8491 4.46203 64.916 4.60148 64.916 4.76393V4.99107ZM58.4445 8.13012C58.259 8.13012 58.1016 8.07549 57.9737 7.96479C57.8457 7.8541 57.7818 7.71177 57.7818 7.53782V7.27545C57.7818 7.113 57.8457 6.97355 57.9737 6.85711C58.1016 6.74138 58.259 6.68315 58.4445 6.68315H66.102C66.2759 6.68315 66.4305 6.74138 66.5635 6.85711C66.6979 6.97355 66.7647 7.113 66.7647 7.27545V7.53782C66.7647 7.71177 66.6979 7.8541 66.5635 7.96479C66.4305 8.07549 66.2759 8.13012 66.102 8.13012H64.985C65.3695 8.49096 65.6427 8.87193 65.8051 9.27303C65.9676 9.67413 66.0488 10.0314 66.0488 10.3455C66.0488 10.7761 65.9568 11.1858 65.7706 11.5754C65.5837 11.965 65.3286 12.3107 65.0029 12.6133C64.6773 12.916 64.2906 13.1568 63.8428 13.3365C63.3957 13.5169 62.9155 13.6067 62.4044 13.6067C61.8919 13.6067 61.4153 13.5169 60.974 13.3365C60.5319 13.1568 60.1481 12.916 59.8225 12.6133C59.4968 12.3107 59.2409 11.965 59.0548 11.5754C58.8693 11.1858 58.7759 10.7761 58.7759 10.3455C58.7759 10.0551 58.8485 9.70288 58.9937 9.29028C59.1396 8.87768 59.4156 8.49096 59.8225 8.13012H58.4445Z" fill="#5A5758"/>
<path d="M75.7647 4.85132C75.7647 4.68815 75.8279 4.54942 75.9566 4.43226C76.0838 4.31653 76.2412 4.2583 76.4274 4.2583H85.5491C85.7353 4.2583 85.892 4.32228 86.0207 4.45023C86.1479 4.57818 86.2119 4.72338 86.2119 4.88583C86.1767 5.54929 86.1077 6.31626 86.0027 7.18818C85.8985 8.06082 85.782 8.89248 85.6541 9.68246H87.5546C87.73 9.68246 87.8831 9.74068 88.0175 9.85713C88.1505 9.97357 88.2174 10.113 88.2174 10.2755V10.6068C88.2174 10.7815 88.1505 10.9238 88.0175 11.0345C87.8831 11.1452 87.73 11.2006 87.5546 11.2006H82.2182V13.7639H85.3227C85.4967 13.7639 85.6512 13.8221 85.7842 13.9385C85.9179 14.055 85.9855 14.1944 85.9855 14.3569V18.8919C85.9855 19.0658 85.9179 19.2089 85.7842 19.3188C85.6512 19.4295 85.4967 19.4849 85.3227 19.4849H84.7297C84.5435 19.4849 84.3861 19.4295 84.2582 19.3188C84.1309 19.2089 84.0669 19.0658 84.0669 18.8919V15.2461H76.7063C76.5201 15.2461 76.3634 15.1914 76.2355 15.0807C76.1076 14.9708 76.0436 14.8277 76.0436 14.6538V14.3569C76.0436 14.1944 76.1076 14.055 76.2355 13.9385C76.3634 13.8221 76.5201 13.7639 76.7063 13.7639H80.1947V11.2006H74.4917C74.3055 11.2006 74.1481 11.1452 74.0201 11.0345C73.8922 10.9238 73.8289 10.7815 73.8289 10.6068V10.2755C73.8289 10.113 73.8922 9.97357 74.0201 9.85713C74.1481 9.74068 74.3055 9.68246 74.4917 9.68246H83.6831C83.7873 9.08944 83.8865 8.44682 83.98 7.75532C84.0727 7.06382 84.1417 6.40396 84.1891 5.77571H76.4274C76.2412 5.77571 76.0838 5.72037 75.9566 5.61039C75.8279 5.49969 75.7647 5.35737 75.7647 5.1827V4.85132Z" fill="#5A5758"/>
<path d="M94.2348 11.2005H100.2V8.54956H94.2348V11.2005ZM94.2348 7.03143H100.2V4.74702C100.2 4.58385 100.264 4.44439 100.391 4.32794C100.519 4.21222 100.677 4.15403 100.863 4.15403H101.456C101.63 4.15403 101.784 4.21222 101.917 4.32794C102.051 4.44439 102.119 4.58385 102.119 4.74702V12.1242C102.119 12.2989 102.051 12.4412 101.917 12.5519C101.784 12.6626 101.63 12.7179 101.456 12.7179H98.3514V15.8218H103.688C103.863 15.8218 104.016 15.8807 104.151 15.9964C104.284 16.1129 104.351 16.2523 104.351 16.4155V16.7469C104.351 16.9208 104.284 17.0631 104.151 17.1738C104.016 17.2845 103.863 17.3399 103.688 17.3399H90.6249C90.4387 17.3399 90.2813 17.2845 90.1534 17.1738C90.0254 17.0631 89.9622 16.9208 89.9622 16.7469V16.4155C89.9622 16.2523 90.0254 16.1129 90.1534 15.9964C90.2813 15.8807 90.4387 15.8218 90.6249 15.8218H96.328V12.7179H92.979C92.7928 12.7179 92.6354 12.6626 92.5082 12.5519C92.3802 12.4412 92.3163 12.2989 92.3163 12.1242V4.74702C92.3163 4.58385 92.3802 4.44439 92.5082 4.32794C92.6354 4.21222 92.7928 4.15403 92.979 4.15403H93.572C93.746 4.15403 93.9005 4.21222 94.0342 4.32794C94.1679 4.44439 94.2348 4.58385 94.2348 4.74702V7.03143Z" fill="#5A5758"/>
<path d="M114.747 10.0838C114.561 10.0838 114.403 10.0285 114.276 9.91852C114.147 9.80783 114.084 9.66478 114.084 9.49083V9.17671C114.084 9.01426 114.147 8.87481 114.276 8.75836C114.403 8.64263 114.561 8.58369 114.747 8.58369H117.188V4.34558C117.188 4.18313 117.252 4.04368 117.381 3.92723C117.509 3.81078 117.665 3.75256 117.851 3.75256H118.41C118.584 3.75256 118.738 3.81078 118.871 3.92723C119.005 4.04368 119.073 4.18313 119.073 4.34558V14.3917C119.073 14.5664 119.005 14.7094 118.871 14.8194C118.738 14.9301 118.584 14.9847 118.41 14.9847H117.851C117.665 14.9847 117.509 14.9301 117.381 14.8194C117.252 14.7094 117.188 14.5664 117.188 14.3917V10.0838H114.747ZM119.351 18.6823C119.351 18.8569 119.284 18.9993 119.151 19.11C119.017 19.2199 118.864 19.276 118.688 19.276H110.333C110.148 19.276 109.991 19.2199 109.863 19.11C109.735 18.9993 109.671 18.8569 109.671 18.6823V14.741C109.671 14.5779 109.735 14.4384 109.863 14.322C109.991 14.2062 110.148 14.148 110.333 14.148H110.927C111.102 14.148 111.256 14.2062 111.389 14.322C111.523 14.4384 111.589 14.5779 111.589 14.741V17.7579H118.688C118.864 17.7579 119.017 17.8161 119.151 17.9325C119.284 18.049 119.351 18.1884 119.351 18.3509V18.6823ZM107.491 5.09602C107.491 4.93285 107.554 4.7934 107.683 4.67695C107.811 4.5605 107.967 4.50228 108.154 4.50228H114.014C114.223 4.50228 114.392 4.56985 114.52 4.70355C114.648 4.83724 114.7 4.99107 114.676 5.16502C114.538 6.25834 114.276 7.23808 113.892 8.10424C113.508 8.97041 113.031 9.74098 112.462 10.4152C111.88 11.0895 111.227 11.6861 110.499 12.2029C109.773 12.7204 108.996 13.1711 108.171 13.555C108.032 13.6132 107.915 13.6448 107.822 13.6506C107.729 13.6571 107.618 13.6067 107.491 13.5025L107.177 13.2581C106.898 13.0489 106.782 12.8484 106.828 12.6565C106.874 12.4646 107.026 12.3165 107.281 12.2115C107.967 11.8866 108.608 11.4999 109.2 11.0521C109.793 10.6043 110.323 10.1133 110.787 9.57781C111.241 9.04373 111.619 8.47371 111.921 7.86847C112.223 7.26467 112.438 6.64218 112.567 6.00244H108.154C107.967 6.00244 107.811 5.94781 107.683 5.83711C107.554 5.72642 107.491 5.58409 107.491 5.40942V5.09602Z" fill="#5A5758"/>
<path d="M126.502 8.65371H132.468V7.11909H126.502V8.65371ZM124.444 14.967C124.444 14.8046 124.508 14.6652 124.636 14.5487C124.764 14.433 124.92 14.3748 125.106 14.3748H133.723C133.897 14.3748 134.052 14.433 134.185 14.5487C134.319 14.6652 134.385 14.8046 134.385 14.967V18.8918C134.385 19.0664 134.319 19.2087 134.185 19.3194C134.052 19.4294 133.897 19.4848 133.723 19.4848H133.13C132.944 19.4848 132.787 19.4294 132.659 19.3194C132.531 19.2087 132.467 19.0664 132.467 18.8918V15.8921H125.106C124.92 15.8921 124.764 15.8368 124.636 15.7261C124.508 15.6162 124.444 15.4731 124.444 15.2991V14.967ZM126.502 5.63614H132.467V4.48461C132.467 4.32216 132.531 4.18273 132.659 4.06629C132.787 3.95056 132.944 3.89233 133.13 3.89233H133.723C133.897 3.89233 134.052 3.95056 134.185 4.06629C134.319 4.18273 134.385 4.32216 134.385 4.48461V9.57811C134.385 9.75278 134.319 9.8951 134.185 10.0051C134.052 10.1158 133.897 10.1711 133.723 10.1711H130.618V11.6886H135.955C136.13 11.6886 136.284 11.7468 136.418 11.8632C136.551 11.979 136.618 12.1191 136.618 12.2816V12.6129C136.618 12.7876 136.551 12.93 136.418 13.0399C136.284 13.1506 136.13 13.2059 135.955 13.2059H122.892C122.705 13.2059 122.549 13.1506 122.421 13.0399C122.292 12.93 122.229 12.7876 122.229 12.6129V12.2816C122.229 12.1191 122.292 11.979 122.421 11.8632C122.549 11.7468 122.705 11.6886 122.892 11.6886H128.595V10.1711H125.246C125.06 10.1711 124.903 10.1158 124.775 10.0051C124.648 9.8951 124.584 9.75278 124.584 9.57811V4.48461C124.584 4.32216 124.648 4.18273 124.775 4.06629C124.903 3.95056 125.06 3.89233 125.246 3.89233H125.839C126.013 3.89233 126.168 3.95056 126.301 4.06629C126.435 4.18273 126.502 4.32216 126.502 4.48461V5.63614Z" fill="#5A5758"/>
<path d="M150.676 3.75251C150.85 3.75251 151.004 3.81073 151.138 3.92718C151.271 4.04363 151.339 4.18308 151.339 4.34553V18.6477C151.339 18.8224 151.271 18.9647 151.138 19.0747C151.004 19.1854 150.85 19.2407 150.676 19.2407H150.118C149.931 19.2407 149.775 19.1854 149.647 19.0747C149.519 18.9647 149.455 18.8224 149.455 18.6477V4.34553C149.455 4.18308 149.519 4.04363 149.647 3.92718C149.775 3.81073 149.931 3.75251 150.118 3.75251H150.676ZM146.647 4.78185C146.821 4.78185 146.976 4.84007 147.109 4.9558C147.243 5.07225 147.309 5.2117 147.309 5.37487V5.68827C147.309 5.86294 147.243 6.00526 147.109 6.11596C146.976 6.22666 146.821 6.28201 146.647 6.28201H144.431V8.25227C144.431 8.78706 144.519 9.3312 144.693 9.88325C144.868 10.436 145.1 10.9679 145.391 11.4797C145.693 11.9908 146.039 12.4703 146.429 12.9181C146.818 13.3659 147.234 13.7526 147.676 14.0782C147.862 14.2177 147.955 14.3744 147.955 14.5491C147.955 14.7237 147.868 14.8804 147.694 15.0199L147.38 15.2643C147.263 15.3577 147.118 15.4095 146.943 15.421C146.769 15.4332 146.623 15.3922 146.507 15.2988C146.24 15.1018 145.96 14.8689 145.67 14.6015C145.379 14.3341 145.1 14.0373 144.833 13.7116C144.565 13.3975 144.315 13.0575 144.082 12.6916C143.85 12.3251 143.664 11.9441 143.525 11.5487C143.175 12.4681 142.696 13.2667 142.086 13.9474C141.475 14.6274 140.885 15.183 140.315 15.6129C140.21 15.6941 140.086 15.7466 139.94 15.7696C139.795 15.7933 139.67 15.7638 139.565 15.6826L139.147 15.4037C138.938 15.2758 138.819 15.1191 138.789 14.9329C138.76 14.7467 138.85 14.5836 139.06 14.4448C140.083 13.6886 140.914 12.7642 141.554 11.6709C142.193 10.5783 142.513 9.43831 142.513 8.25227V6.28201H140.141C139.955 6.28201 139.798 6.22666 139.67 6.11596C139.542 6.00526 139.478 5.86294 139.478 5.68827V5.37487C139.478 5.2117 139.542 5.07225 139.67 4.9558C139.798 4.84007 139.955 4.78185 140.141 4.78185H146.647Z" fill="#5A5758"/>
<path d="M166.809 3.75243C166.983 3.75243 167.137 3.81065 167.272 3.9271C167.404 4.04355 167.472 4.183 167.472 4.34545V14.3916C167.472 14.5662 167.404 14.7093 167.272 14.8192C167.137 14.9299 166.983 14.9846 166.809 14.9846H166.251C166.065 14.9846 165.908 14.9299 165.78 14.8192C165.652 14.7093 165.588 14.5662 165.588 14.3916V4.34545C165.588 4.183 165.652 4.04355 165.78 3.9271C165.908 3.81065 166.065 3.75243 166.251 3.75243H166.809ZM167.751 18.6829C167.751 18.8568 167.684 18.9991 167.55 19.1098C167.417 19.2205 167.263 19.2759 167.088 19.2759H158.733C158.547 19.2759 158.391 19.2205 158.263 19.1098C158.135 18.9991 158.071 18.8568 158.071 18.6829V14.9328C158.071 14.7696 158.135 14.6302 158.263 14.5138C158.391 14.398 158.547 14.3398 158.733 14.3398H159.326C159.501 14.3398 159.655 14.398 159.789 14.5138C159.922 14.6302 159.989 14.7696 159.989 14.9328V17.7577H167.088C167.263 17.7577 167.417 17.816 167.55 17.9324C167.684 18.0489 167.751 18.1883 167.751 18.3515V18.6829ZM157.146 8.23494C157.146 8.88618 157.347 9.44182 157.749 9.90042C158.149 10.3597 158.635 10.5898 159.204 10.5898C159.762 10.5898 160.242 10.3597 160.643 9.90042C161.044 9.44182 161.245 8.88618 161.245 8.23494C161.245 7.92082 161.19 7.62179 161.079 7.33642C160.969 7.05177 160.821 6.80522 160.635 6.59533C160.449 6.38615 160.234 6.21795 159.989 6.08928C159.746 5.96205 159.484 5.89808 159.204 5.89808C158.635 5.89808 158.149 6.13098 157.749 6.59533C157.347 7.06112 157.146 7.60741 157.146 8.23494ZM163.216 8.25219C163.216 8.76398 163.111 9.24918 162.902 9.70922C162.693 10.1685 162.402 10.5725 162.031 10.9211C161.67 11.2698 161.245 11.5465 160.757 11.7492C160.268 11.9533 159.746 12.0547 159.187 12.0547C158.606 12.0547 158.068 11.9533 157.573 11.7492C157.079 11.5465 156.652 11.2698 156.292 10.9211C155.931 10.5725 155.649 10.1685 155.446 9.70922C155.242 9.24918 155.141 8.76398 155.141 8.25219C155.141 7.72889 155.242 7.23507 155.446 6.77C155.649 6.30493 155.931 5.89808 156.292 5.54946C156.652 5.20012 157.079 4.92122 157.573 4.71132C158.068 4.50215 158.606 4.39792 159.187 4.39792C159.746 4.39792 160.268 4.50215 160.757 4.71132C161.245 4.92122 161.67 5.20012 162.031 5.54946C162.402 5.89808 162.693 6.30493 162.902 6.77C163.111 7.23507 163.216 7.72889 163.216 8.25219Z" fill="#5A5758"/>
<path d="M180.483 10.3105V18.142C180.483 18.3167 180.416 18.4583 180.282 18.569C180.149 18.6797 179.994 18.735 179.82 18.735H179.385C179.198 18.735 179.041 18.6797 178.913 18.569C178.785 18.4583 178.722 18.3167 178.722 18.142V4.59025C178.722 4.42708 178.785 4.28763 178.913 4.17118C179.041 4.05473 179.198 3.99651 179.385 3.99651H179.82C179.994 3.99651 180.149 4.05473 180.282 4.17118C180.416 4.28763 180.483 4.42708 180.483 4.59025V8.75791H182.035V4.34585C182.035 4.18268 182.099 4.04323 182.227 3.92678C182.355 3.81105 182.512 3.75211 182.698 3.75211H183.134C183.308 3.75211 183.463 3.81105 183.596 3.92678C183.73 4.04323 183.797 4.18268 183.797 4.34585V18.648C183.797 18.822 183.73 18.9643 183.596 19.075C183.463 19.1857 183.308 19.2403 183.134 19.2403H182.698C182.512 19.2403 182.355 19.1857 182.227 19.075C182.099 18.9643 182.035 18.822 182.035 18.648V10.3105H180.483ZM176.907 4.79942C177.082 4.79942 177.235 4.85764 177.37 4.97337C177.503 5.08982 177.57 5.22927 177.57 5.39172V5.68859C177.57 5.86326 177.503 6.00559 177.37 6.11628C177.235 6.22626 177.082 6.28161 176.907 6.28161H175.477V8.56671C175.477 9.09 175.541 9.61258 175.669 10.1359C175.796 10.6592 175.977 11.1652 176.21 11.654C176.442 12.1536 176.713 12.6244 177.021 13.0665C177.329 13.5085 177.663 13.9039 178.024 14.2525C178.163 14.3805 178.224 14.5314 178.207 14.7061C178.19 14.88 178.111 15.0195 177.971 15.1244L177.657 15.3688C177.518 15.4853 177.357 15.5406 177.178 15.5341C176.997 15.5284 176.844 15.4623 176.716 15.3336C176.32 14.9153 175.951 14.4588 175.608 13.9643C175.265 13.4704 174.948 12.8688 174.658 12.1593C174.402 12.9737 174.076 13.6652 173.681 14.2345C173.285 14.8046 172.884 15.2991 172.477 15.7174C172.372 15.8217 172.242 15.8892 172.084 15.918C171.928 15.9475 171.791 15.9266 171.675 15.8569L171.273 15.6305C171.064 15.5255 170.943 15.3832 170.908 15.2028C170.872 15.0231 170.943 14.8513 171.117 14.6881C171.954 13.8162 172.591 12.8515 173.027 11.7935C173.462 10.7354 173.681 9.6593 173.681 8.56671V6.28161H172.145C171.96 6.28161 171.803 6.22626 171.675 6.11628C171.547 6.00559 171.483 5.86326 171.483 5.68859V5.39172C171.483 5.22927 171.547 5.08982 171.675 4.97337C171.803 4.85764 171.96 4.79942 172.145 4.79942H176.907Z" fill="#5A5758"/>
<path d="M198.517 15.5953C198.331 15.5953 198.174 15.5407 198.047 15.43C197.918 15.3193 197.854 15.177 197.854 15.0023V14.4617H195.011C194.825 14.4617 194.669 14.4064 194.541 14.2957C194.413 14.1857 194.349 14.0434 194.349 13.8687V13.5898C194.349 13.4267 194.413 13.2872 194.541 13.1708C194.669 13.055 194.825 12.9968 195.011 12.9968H197.854V4.34591C197.854 4.18274 197.918 4.04329 198.047 3.92685C198.174 3.8104 198.331 3.75217 198.517 3.75217H199.058C199.232 3.75217 199.387 3.8104 199.521 3.92685C199.654 4.04329 199.721 4.18274 199.721 4.34591V15.0023C199.721 15.177 199.654 15.3193 199.521 15.43C199.387 15.5407 199.232 15.5953 199.058 15.5953H198.517ZM200 18.6654C200 18.8393 199.933 18.9816 199.799 19.0923C199.666 19.203 199.512 19.2584 199.337 19.2584H190.861C190.675 19.2584 190.517 19.203 190.389 19.0923C190.262 18.9816 190.198 18.8393 190.198 18.6654V16.0489C190.198 15.8864 190.262 15.7463 190.389 15.6305C190.517 15.5141 190.675 15.4559 190.861 15.4559H191.436C191.611 15.4559 191.764 15.5141 191.898 15.6305C192.032 15.7463 192.099 15.8864 192.099 16.0489V17.7582H199.337C199.512 17.7582 199.666 17.8164 199.799 17.9322C199.933 18.0486 200 18.1881 200 18.3512V18.6654ZM190.198 7.10112C190.198 7.58991 190.378 8.01688 190.739 8.38348C191.099 8.75007 191.535 8.93265 192.046 8.93265C192.546 8.93265 192.98 8.75007 193.346 8.38348C193.712 8.01688 193.895 7.58991 193.895 7.10112C193.895 6.62455 193.712 6.20045 193.346 5.8281C192.98 5.45648 192.546 5.2703 192.046 5.2703C191.535 5.2703 191.099 5.45648 190.739 5.8281C190.378 6.20045 190.198 6.62455 190.198 7.10112ZM192.046 10.3631C191.512 10.3631 191.014 10.2761 190.556 10.1014C190.095 9.92676 189.692 9.68884 189.343 9.38622C189.006 9.09582 188.741 8.75223 188.549 8.35688C188.357 7.96225 188.261 7.54319 188.261 7.10112C188.261 6.67127 188.357 6.26155 188.549 5.87195C188.741 5.48235 189.006 5.13661 189.343 4.83399C189.692 4.53137 190.095 4.29057 190.556 4.11014C191.014 3.92972 191.512 3.83987 192.046 3.83987C192.57 3.83987 193.061 3.92972 193.521 4.11014C193.98 4.29057 194.377 4.52634 194.715 4.81674C195.052 5.11864 195.323 5.46798 195.526 5.86261C195.73 6.25867 195.832 6.67127 195.832 7.10112C195.832 7.54319 195.73 7.96225 195.526 8.35688C195.323 8.75223 195.052 9.09582 194.715 9.38622C194.377 9.68884 193.98 9.92676 193.521 10.1014C193.061 10.2761 192.57 10.3631 192.046 10.3631ZM192.709 14.4445C192.709 14.6184 192.642 14.7615 192.509 14.8715C192.375 14.9822 192.221 15.0375 192.046 15.0375H191.453C191.267 15.0375 191.11 14.9822 190.983 14.8715C190.855 14.7615 190.791 14.6184 190.791 14.4445V12.5777H187.948C187.762 12.5777 187.604 12.5231 187.477 12.4124C187.349 12.3017 187.285 12.1594 187.285 11.9854V11.7058C187.285 11.5434 187.349 11.4039 187.477 11.2875C187.604 11.171 187.762 11.1128 187.948 11.1128H190.739C191.087 11.1128 191.489 11.1042 191.942 11.0869C192.395 11.0697 192.872 11.0431 193.373 11.0086C193.872 10.9734 194.377 10.9266 194.889 10.8684C195.401 10.8109 195.896 10.7412 196.372 10.6592C196.581 10.6247 196.762 10.6686 196.913 10.7901C197.064 10.9123 197.14 11.0668 197.14 11.2523V11.5319C197.14 11.6713 197.081 11.7993 196.965 11.915C196.849 12.0314 196.721 12.1012 196.581 12.1242C196.093 12.2061 195.517 12.2787 194.855 12.3427C194.191 12.4067 193.477 12.4555 192.709 12.4908V14.4445Z" fill="#5A5758"/>
<path d="M60.3483 24.1717H60.909V25.9832L62.5788 24.1717H63.3242L61.4862 26.1183L63.4694 28.2891H62.6514L60.909 26.2714V28.2891H60.3483V24.1717Z" fill="#5A5758"/>
<path d="M65.7395 27.8407C66.6409 27.8407 67.0283 27.0507 67.0283 26.2305C67.0283 25.3931 66.6021 24.6139 65.7395 24.6204C64.8762 24.6139 64.4507 25.3931 64.4507 26.2305C64.4507 27.0507 64.8374 27.8407 65.7395 27.8407ZM65.7395 24.1014C66.9277 24.1014 67.6221 25.0093 67.6221 26.2305C67.6221 27.4813 66.9327 28.3596 65.7395 28.3596C64.5455 28.3596 63.8562 27.4813 63.8562 26.2305C63.8562 25.0093 64.5513 24.1014 65.7395 24.1014Z" fill="#5A5758"/>
<path d="M68.9449 25.9413H69.4207C69.9534 25.9413 70.2675 25.6933 70.2675 25.2987C70.2675 24.9271 69.9979 24.6906 69.4826 24.6906H68.9449V25.9413ZM68.3849 24.1716H69.3431C70.1158 24.1716 70.8612 24.3017 70.8612 25.2865C70.8612 25.7882 70.5076 26.1419 70.054 26.2245V26.236C70.228 26.3072 70.3121 26.3956 70.435 26.6494L71.1754 28.289H70.5363L69.9368 26.8614C69.7629 26.4603 69.5782 26.4603 69.2806 26.4603H68.9449V28.289H68.3849V24.1716Z" fill="#5A5758"/>
<path d="M71.8702 24.1717H74.0604V24.6907H72.4301V25.894H73.9152V26.4137H72.4301V27.7701H74.0604V28.2891H71.8702V24.1717Z" fill="#5A5758"/>
<path d="M76.4706 24.7263L75.6914 26.7671H77.2491L76.4706 24.7263ZM76.196 24.1721H76.7847L78.4373 28.2895H77.827L77.4288 27.2508H75.5124L75.1142 28.2895H74.5262L76.196 24.1721Z" fill="#5A5758"/>
<path d="M80.5888 24.1717H81.1488V25.894H83.0213V24.1717H83.5812V28.2891H83.0213V26.4137H81.1488V28.2891H80.5888V24.1717Z" fill="#5A5758"/>
<path d="M87.6494 26.5845C87.6494 27.7404 87.0945 28.36 86.1313 28.36C85.1673 28.36 84.6124 27.7404 84.6124 26.5845V24.1715H85.1731V26.5076C85.1731 27.2983 85.4081 27.841 86.1313 27.841C86.8544 27.841 87.0894 27.2983 87.0894 26.5076V24.1715H87.6494V26.5845Z" fill="#5A5758"/>
<path d="M88.6581 24.1717H89.5825L90.8102 27.5933L92.0149 24.1717H92.9393V28.2891H92.3794V24.726H92.3679L91.0733 28.2891H90.5241L89.2295 24.726H89.218V28.2891H88.6581V24.1717Z" fill="#5A5758"/>
<path d="M95.4552 24.7263L94.676 26.7671H96.2344L95.4552 24.7263ZM95.1807 24.1721H95.7686L97.4219 28.2895H96.8116L96.4134 27.2508H94.4971L94.0988 28.2895H93.5109L95.1807 24.1721Z" fill="#5A5758"/>
<path d="M97.9825 24.1717H98.7451L100.47 27.4869H100.482V24.1717H101.042V28.2891H100.325L98.5539 24.9035H98.5424V28.2891H97.9825V24.1717Z" fill="#5A5758"/>
<path d="M104.118 25.9413H104.595C105.127 25.9413 105.441 25.6933 105.441 25.2987C105.441 24.9271 105.172 24.6906 104.657 24.6906H104.118V25.9413ZM103.558 24.1716H104.517C105.29 24.1716 106.035 24.3017 106.035 25.2865C106.035 25.7882 105.682 26.1419 105.228 26.2245V26.236C105.402 26.3072 105.486 26.3956 105.609 26.6494L106.349 28.289H105.71L105.11 26.8614C104.936 26.4603 104.752 26.4603 104.455 26.4603H104.118V28.289H103.558V24.1716Z" fill="#5A5758"/>
<path d="M107.043 24.1717H109.234V24.6907H107.603V25.894H109.089V26.4137H107.603V27.7701H109.234V28.2891H107.043V24.1717Z" fill="#5A5758"/>
<path d="M111.907 24.7913C111.622 24.6735 111.465 24.6203 111.173 24.6203C110.859 24.6203 110.49 24.7381 110.49 25.1687C110.49 25.9594 112.171 25.7768 112.171 27.1332C112.171 28.0123 111.527 28.3595 110.742 28.3595C110.467 28.3595 110.198 28.2776 109.941 28.1892L109.997 27.6407C110.187 27.7226 110.524 27.8405 110.809 27.8405C111.129 27.8405 111.577 27.6522 111.577 27.1684C111.577 26.2484 109.896 26.5021 109.896 25.2219C109.896 24.4902 110.444 24.1013 111.151 24.1013C111.409 24.1013 111.717 24.148 111.986 24.2486L111.907 24.7913Z" fill="#5A5758"/>
<path d="M114.614 27.8407C115.516 27.8407 115.903 27.0507 115.903 26.2305C115.903 25.3931 115.477 24.6139 114.614 24.6204C113.751 24.6139 113.325 25.3931 113.325 26.2305C113.325 27.0507 113.712 27.8407 114.614 27.8407ZM114.614 24.1014C115.802 24.1014 116.497 25.0093 116.497 26.2305C116.497 27.4813 115.807 28.3596 114.614 28.3596C113.42 28.3596 112.732 27.4813 112.732 26.2305C112.732 25.0093 113.427 24.1014 114.614 24.1014Z" fill="#5A5758"/>
<path d="M120.335 26.5845C120.335 27.7404 119.78 28.36 118.816 28.36C117.853 28.36 117.298 27.7404 117.298 26.5845V24.1715H117.858V26.5076C117.858 27.2983 118.094 27.841 118.816 27.841C119.54 27.841 119.775 27.2983 119.775 26.5076V24.1715H120.335V26.5845Z" fill="#5A5758"/>
<path d="M121.865 25.9413H122.341C122.874 25.9413 123.188 25.6933 123.188 25.2987C123.188 24.9271 122.919 24.6906 122.404 24.6906H121.865V25.9413ZM121.305 24.1716H122.263C123.036 24.1716 123.782 24.3017 123.782 25.2865C123.782 25.7882 123.429 26.1419 122.975 26.2245V26.236C123.149 26.3072 123.233 26.3956 123.356 26.6494L124.096 28.289H123.457L122.857 26.8614C122.683 26.4603 122.498 26.4603 122.201 26.4603H121.865V28.289H121.305V24.1716Z" fill="#5A5758"/>
<path d="M127.463 24.8502C127.216 24.6971 126.942 24.6202 126.656 24.6202C125.754 24.6202 125.155 25.3045 125.155 26.2303C125.155 27.1979 125.816 27.8405 126.628 27.8405C126.909 27.8405 127.284 27.7643 127.479 27.6406L127.513 28.2121C127.216 28.3422 126.852 28.3602 126.623 28.3602C125.384 28.3602 124.56 27.522 124.56 26.2131C124.56 24.9444 125.434 24.1012 126.628 24.1012C126.931 24.1012 127.228 24.1479 127.508 24.278L127.463 24.8502Z" fill="#5A5758"/>
<path d="M128.214 24.1717H130.405V24.6907H128.775V25.894H130.26V26.4137H128.775V27.7701H130.405V28.2891H128.214V24.1717Z" fill="#5A5758"/>
<path d="M133.386 27.77H133.975C134.938 27.77 135.471 27.2805 135.471 26.2188C135.471 25.257 134.849 24.6906 134.042 24.6906H133.386V27.77ZM132.826 24.1716H133.98C135.14 24.1716 136.065 24.9271 136.065 26.1951C136.065 27.5752 135.269 28.289 133.98 28.289H132.826V24.1716Z" fill="#5A5758"/>
<path d="M136.934 24.1717H139.125V24.6907H137.494V25.894H138.979V26.4137H137.494V27.7701H139.125V28.2891H136.934V24.1717Z" fill="#5A5758"/>
<path d="M141.73 28.2892H141.03L139.556 24.1719H140.183L141.389 27.7702H141.399L142.638 24.1719H143.227L141.73 28.2892Z" fill="#5A5758"/>
<path d="M143.786 24.1717H145.977V24.6907H144.346V25.894H145.832V26.4137H144.346V27.7701H145.977V28.2891H143.786V24.1717Z" fill="#5A5758"/>
<path d="M146.868 24.1717H147.428V27.7701H149.065V28.2891H146.868V24.1717Z" fill="#5A5758"/>
<path d="M151.357 27.8407C152.259 27.8407 152.646 27.0507 152.646 26.2305C152.646 25.3931 152.22 24.6139 151.357 24.6204C150.494 24.6139 150.068 25.3931 150.068 26.2305C150.068 27.0507 150.455 27.8407 151.357 27.8407ZM151.357 24.1014C152.545 24.1014 153.24 25.0093 153.24 26.2305C153.24 27.4813 152.55 28.3596 151.357 28.3596C150.163 28.3596 149.475 27.4813 149.475 26.2305C149.475 25.0093 150.169 24.1014 151.357 24.1014Z" fill="#5A5758"/>
<path d="M154.563 26.1243H155.118C155.465 26.1243 155.902 25.9417 155.902 25.399C155.902 24.88 155.386 24.691 155.038 24.691H154.563V26.1243ZM154.003 24.172H155.028C155.829 24.172 156.496 24.4667 156.496 25.4048C156.496 26.3191 155.818 26.6433 155.111 26.6433H154.563V28.2894H154.003V24.172Z" fill="#5A5758"/>
<path d="M157.157 24.1717H158.082L159.309 27.5933L160.514 24.1717H161.438V28.2891H160.879V24.726H160.867L159.572 28.2891H159.023L157.729 24.726H157.717V28.2891H157.157V24.1717Z" fill="#5A5758"/>
<path d="M162.469 24.1717H164.66V24.6907H163.029V25.894H164.514V26.4137H163.029V27.7701H164.66V28.2891H162.469V24.1717Z" fill="#5A5758"/>
<path d="M165.552 24.1717H166.314L168.039 27.4869H168.05V24.1717H168.611V28.2891H167.893L166.123 24.9035H166.112V28.2891H165.552V24.1717Z" fill="#5A5758"/>
<path d="M170.382 24.6909H169.165V24.1719H172.158V24.6909H170.941V28.2892H170.382V24.6909Z" fill="#5A5758"/>
<path d="M174.276 24.1715H174.836V28.2888H174.276V24.1715Z" fill="#5A5758"/>
<path d="M175.829 24.1717H176.591L178.316 27.4869H178.327V24.1717H178.888V28.2891H178.171L176.399 24.9035H176.389V28.2891H175.829V24.1717Z" fill="#5A5758"/>
<path d="M181.656 24.7913C181.371 24.6735 181.214 24.6203 180.922 24.6203C180.608 24.6203 180.238 24.7381 180.238 25.1687C180.238 25.9594 181.919 25.7768 181.919 27.1332C181.919 28.0123 181.275 28.3595 180.49 28.3595C180.215 28.3595 179.947 28.2776 179.689 28.1892L179.745 27.6407C179.936 27.7226 180.272 27.8405 180.558 27.8405C180.877 27.8405 181.325 27.6522 181.325 27.1684C181.325 26.2484 179.645 26.5021 179.645 25.2219C179.645 24.4902 180.193 24.1013 180.9 24.1013C181.157 24.1013 181.466 24.148 181.735 24.2486L181.656 24.7913Z" fill="#5A5758"/>
<path d="M183.461 24.6909H182.244V24.1719H185.237V24.6909H184.021V28.2892H183.461V24.6909Z" fill="#5A5758"/>
<path d="M185.798 24.1715H186.358V28.2888H185.798V24.1715Z" fill="#5A5758"/>
<path d="M188.134 24.6909H186.918V24.1719H189.91V24.6909H188.694V28.2892H188.134V24.6909Z" fill="#5A5758"/>
<path d="M193.514 26.5845C193.514 27.7404 192.959 28.36 191.995 28.36C191.031 28.36 190.476 27.7404 190.476 26.5845V24.1715H191.037V26.5076C191.037 27.2983 191.272 27.841 191.995 27.841C192.718 27.841 192.954 27.2983 192.954 26.5076V24.1715H193.514V26.5845Z" fill="#5A5758"/>
<path d="M195.295 24.6909H194.079V24.1719H197.071V24.6909H195.855V28.2892H195.295V24.6909Z" fill="#5A5758"/>
<path d="M197.66 24.1717H199.851V24.6907H198.22V25.894H199.705V26.4137H198.22V27.7701H199.851V28.2891H197.66V24.1717Z" fill="#5A5758"/>
<path d="M60.2867 31.3776H62.3655V31.8966H60.8474V33.0999H62.2987V33.6188H60.8474V35.4949H60.2867V31.3776Z" fill="#5A5758"/>
<path d="M64.8035 35.0466C65.7056 35.0466 66.0923 34.2559 66.0923 33.4364C66.0923 32.599 65.6668 31.8198 64.8035 31.8256C63.9402 31.8198 63.5147 32.599 63.5147 33.4364C63.5147 34.2559 63.9014 35.0466 64.8035 35.0466ZM64.8035 31.3073C65.9917 31.3073 66.6861 32.2152 66.6861 33.4364C66.6861 34.6864 65.9974 35.5656 64.8035 35.5656C63.6103 35.5656 62.9209 34.6864 62.9209 33.4364C62.9209 32.2152 63.616 31.3073 64.8035 31.3073Z" fill="#5A5758"/>
<path d="M68.0088 33.1473H68.4847C69.0173 33.1473 69.3314 32.8993 69.3314 32.504C69.3314 32.1323 69.0626 31.8966 68.5465 31.8966H68.0088V33.1473ZM67.4489 31.3776H68.407C69.1798 31.3776 69.9252 31.507 69.9252 32.4925C69.9252 32.9935 69.5722 33.3478 69.1187 33.4305V33.442C69.2919 33.5132 69.3767 33.6016 69.4996 33.8553L70.2393 35.4949H69.6003L69.0008 34.0674C68.8268 33.6663 68.6421 33.6663 68.3445 33.6663H68.0088V35.4949H67.4489V31.3776Z" fill="#5A5758"/>
<path d="M72.4914 31.3776H73.0521V33.0999H74.9239V31.3776H75.4838V35.4949H74.9239V33.6188H73.0521V35.4949H72.4914V31.3776Z" fill="#5A5758"/>
<path d="M76.5371 31.3776H78.728V31.8966H77.0978V33.0999H78.5828V33.6188H77.0978V34.976H78.728V35.4949H76.5371V31.3776Z" fill="#5A5758"/>
<path d="M81.1383 31.9322L80.3591 33.9729H81.9168L81.1383 31.9322ZM80.8637 31.378H81.4517L83.105 35.4953H82.4947L82.0965 34.4567H80.1802L79.7819 35.4953H79.1939L80.8637 31.378Z" fill="#5A5758"/>
<path d="M83.6655 31.3776H84.2255V34.976H85.8622V35.4949H83.6655V31.3776Z" fill="#5A5758"/>
<path d="M86.9435 31.8968H85.728V31.3778H88.7197V31.8968H87.5042V35.4952H86.9435V31.8968Z" fill="#5A5758"/>
<path d="M89.3085 31.3776H89.8685V33.0999H91.741V31.3776H92.301V35.4949H91.741V33.6188H89.8685V35.4949H89.3085V31.3776Z" fill="#5A5758"/>
<path d="M96.1951 32.982C96.4309 32.8641 96.7838 32.6104 96.7838 32.2625C96.7838 31.8851 96.5876 31.755 96.318 31.755C96.0614 31.755 95.8479 31.9318 95.8479 32.2862C95.8479 32.5629 96.0276 32.7872 96.1951 32.982ZM96.2116 35.1176C96.5761 35.1176 96.8118 34.8696 96.9355 34.7223L95.9938 33.5599C95.697 33.7727 95.4439 33.9675 95.4439 34.3743C95.4439 34.8286 95.8084 35.1176 96.2116 35.1176ZM98.0166 33.271C97.9663 33.9373 97.7923 34.3212 97.568 34.6806L98.2516 35.495H97.5515L97.2323 35.0939C96.952 35.4303 96.6099 35.5654 96.1117 35.5654C95.3376 35.5654 94.8502 35.1054 94.8502 34.4153C94.8502 33.79 95.1981 33.4363 95.7243 33.212C95.5173 32.9468 95.321 32.6693 95.321 32.274C95.321 31.6134 95.7811 31.3072 96.341 31.3072C96.8507 31.3072 97.31 31.5904 97.31 32.2388C97.31 32.7642 96.8679 33.1179 96.4532 33.3127L97.2489 34.268C97.4005 34.0142 97.4616 33.7432 97.4897 33.271H98.0166Z" fill="#5A5758"/>
<path d="M100 31.3776H100.616L101.552 34.9048H101.563L102.398 31.3776H103.194L104.041 34.9048H104.052L104.988 31.3776H105.581L104.377 35.4949H103.654L102.802 31.8966H102.791L101.934 35.4949H101.183L100 31.3776Z" fill="#5A5758"/>
<path d="M106.12 31.3776H108.311V31.8966H106.68V33.0999H108.165V33.6188H106.68V34.976H108.311V35.4949H106.12V31.3776Z" fill="#5A5758"/>
<path d="M109.202 31.3776H109.762V34.976H111.398V35.4949H109.202V31.3776Z" fill="#5A5758"/>
<path d="M111.975 31.3776H114.055V31.8966H112.535V33.0999H113.987V33.6188H112.535V35.4949H111.975V31.3776Z" fill="#5A5758"/>
<path d="M116.117 31.9322L115.338 33.9729H116.896L116.117 31.9322ZM115.843 31.378H116.431L118.084 35.4953H117.474L117.075 34.4567H115.159L114.761 35.4953H114.173L115.843 31.378Z" fill="#5A5758"/>
<path d="M119.177 33.1473H119.653C120.185 33.1473 120.5 32.8993 120.5 32.504C120.5 32.1323 120.23 31.8966 119.715 31.8966H119.177V33.1473ZM118.616 31.3776H119.574C120.348 31.3776 121.093 31.507 121.093 32.4925C121.093 32.9935 120.74 33.3478 120.286 33.4305V33.442C120.46 33.5132 120.544 33.6016 120.667 33.8553L121.407 35.4949H120.768L120.169 34.0674C119.995 33.6663 119.81 33.6663 119.513 33.6663H119.177V35.4949H118.616V31.3776Z" fill="#5A5758"/>
<path d="M122.102 31.3776H124.293V31.8966H122.662V33.0999H124.147V33.6188H122.662V34.976H124.293V35.4949H122.102V31.3776Z" fill="#5A5758"/>
</g>
<defs>
<radialGradient id="paint0_radial_663_1285" cx="0" cy="0" r="1" gradientUnits="userSpaceOnUse" gradientTransform="translate(17.2629 0.726114) scale(34.097 34.097)">
<stop stop-color="#F7905B"/>
<stop offset="0.376404" stop-color="#F1471D"/>
<stop offset="0.668988" stop-color="#D91920"/>
<stop offset="0.730337" stop-color="#D91920"/>
<stop offset="1" stop-color="#B3161C"/>
</radialGradient>
<linearGradient id="paint1_linear_663_1285" x1="30.2481" y1="15.9728" x2="46.4935" y2="35.2107" gradientUnits="userSpaceOnUse">
<stop stop-color="#FDDD04"/>
<stop offset="1" stop-color="#F68712"/>
</linearGradient>
<clipPath id="clip0_663_1285">
<rect width="200" height="38.0127" fill="white" transform="matrix(1 0 0 -1 0 38.0127)"/>
</clipPath>
</defs>
</svg>
