<svg width="200" height="39" viewBox="0 0 200 39" fill="none" xmlns="http://www.w3.org/2000/svg">
<g clip-path="url(#clip0_730_569)">
<path d="M13.7443 8.08525C12.8659 9.83196 11.833 11.082 10.5341 12.5074C8.91606 14.2843 7.00259 15.8635 5.25228 17.501C1.59856 20.9196 -1.33922 24.5827 0.633917 30.7997C3.26836 39.0969 15.7678 40.3433 25.4775 33.9804C30.0182 31.4372 33.8222 26.448 35.2246 21.4573C36.627 16.4579 35.2159 10.4055 32.6642 6.01432C30.5365 2.3527 27.3277 0.0187149 23.0925 2.67029e-05C23.0774 2.67029e-05 23.0623 2.67029e-05 23.0472 2.67029e-05C17.8171 2.67029e-05 15.9144 3.7767 13.7443 8.08525Z" fill="url(#paint0_radial_730_569)"/>
<path d="M30.2101 15.0136C28.3211 17.2664 27.5081 22.0458 28.0947 24.8369C28.9055 28.6761 31.3624 31.9761 34.8594 33.7696C39.2693 36.0274 43.9682 36.3142 47.6356 33.16C52.6608 28.8328 48.9524 23.9686 44.9817 21.0243C43.2443 19.7319 42.5636 17.4224 41.4229 15.5262C40.9384 14.7211 40.3698 13.9886 39.6021 13.443C38.5613 12.7005 37.3163 12.3655 36.0491 12.3655C33.848 12.3655 31.5816 13.3762 30.2101 15.0136Z" fill="url(#paint1_linear_730_569)"/>
<path d="M35.2242 21.4567C36.0206 18.6181 35.9085 15.4396 35.1969 12.4184C33.2784 12.6398 31.4044 13.5865 30.2105 15.0133C28.3215 17.2668 27.5085 22.0454 28.0943 24.8366C28.4925 26.7177 29.2868 28.4666 30.4024 29.9761C32.643 27.4969 34.3753 24.4786 35.2242 21.4567Z" fill="#9F1318"/>
<path d="M70.2709 10.7292V14.8106C70.2709 14.9846 70.204 15.1276 70.071 15.2376C69.9366 15.3483 69.7828 15.4036 69.6081 15.4036H69.0503C68.8641 15.4036 68.7067 15.3483 68.5788 15.2376C68.4515 15.1276 68.3876 14.9846 68.3876 14.8106V4.34545C68.3876 4.183 68.4515 4.04355 68.5788 3.9271C68.7067 3.81065 68.8641 3.75243 69.0503 3.75243H69.6081C69.7828 3.75243 69.9366 3.81065 70.071 3.9271C70.204 4.04355 70.2709 4.183 70.2709 4.34545V9.22905H71.8752C72.0506 9.22905 72.2037 9.28728 72.3382 9.40372C72.4719 9.52017 72.538 9.65962 72.538 9.82207V10.1362C72.538 10.3101 72.4719 10.4532 72.3382 10.5639C72.2037 10.6739 72.0506 10.7292 71.8752 10.7292H70.2709ZM70.6727 18.6821C70.6727 18.8568 70.6051 18.9991 70.4714 19.1098C70.3377 19.2205 70.1839 19.2759 70.0099 19.2759H61.5323C61.3461 19.2759 61.1894 19.2205 61.0614 19.1098C60.9335 18.9991 60.8695 18.8568 60.8695 18.6821V15.3159C60.8695 15.1535 60.9335 15.014 61.0614 14.8976C61.1894 14.7819 61.3461 14.7236 61.5323 14.7236H62.1253C62.3 14.7236 62.4538 14.7819 62.5875 14.8976C62.7212 15.014 62.788 15.1535 62.788 15.3159V17.7577H70.0099C70.1839 17.7577 70.3377 17.816 70.4714 17.9324C70.6051 18.0489 70.6727 18.1883 70.6727 18.3515V18.6821ZM60.7128 10.2059C60.7128 10.7407 60.8781 11.2 61.2102 11.5839C61.5409 11.9677 61.9449 12.1596 62.4222 12.1596C62.8872 12.1596 63.2883 11.9677 63.6254 11.5839C63.9626 11.2 64.1308 10.7407 64.1308 10.2059C64.1308 9.68262 63.9626 9.22618 63.6254 8.83658C63.2883 8.44699 62.8872 8.25219 62.4222 8.25219C61.9449 8.25219 61.5409 8.44699 61.2102 8.83658C60.8781 9.22618 60.7128 9.68262 60.7128 10.2059ZM64.9164 4.99094C64.9164 5.16489 64.8496 5.30794 64.7152 5.41792C64.5815 5.52861 64.4276 5.58396 64.253 5.58396H60.2945C60.1076 5.58396 59.9509 5.52861 59.8229 5.41792C59.695 5.30794 59.631 5.16489 59.631 4.99094V4.7638C59.631 4.60135 59.695 4.4619 59.8229 4.34545C59.9509 4.22972 60.1076 4.17078 60.2945 4.17078H64.253C64.4276 4.17078 64.5815 4.22972 64.7152 4.34545C64.8496 4.4619 64.9164 4.60135 64.9164 4.7638V4.99094ZM58.445 8.12999C58.2595 8.12999 58.1021 8.07536 57.9741 7.96466C57.8462 7.85397 57.7822 7.71164 57.7822 7.53769V7.27532C57.7822 7.11287 57.8462 6.97342 57.9741 6.85698C58.1021 6.74125 58.2595 6.68302 58.445 6.68302H66.1025C66.2764 6.68302 66.431 6.74125 66.5639 6.85698C66.6984 6.97342 66.7652 7.11287 66.7652 7.27532V7.53769C66.7652 7.71164 66.6984 7.85397 66.5639 7.96466C66.431 8.07536 66.2764 8.12999 66.1025 8.12999H64.9854C65.37 8.49083 65.6431 8.8718 65.8056 9.2729C65.9681 9.674 66.0493 10.0312 66.0493 10.3454C66.0493 10.7759 65.9573 11.1857 65.7711 11.5753C65.5842 11.9648 65.329 12.3106 65.0034 12.6132C64.6778 12.9158 64.2911 13.1566 63.8432 13.3363C63.3961 13.5168 62.916 13.6066 62.4049 13.6066C61.8924 13.6066 61.4158 13.5168 60.9745 13.3363C60.5324 13.1566 60.1486 12.9158 59.8229 12.6132C59.4973 12.3106 59.2414 11.9648 59.0552 11.5753C58.8698 11.1857 58.7763 10.7759 58.7763 10.3454C58.7763 10.055 58.8489 9.70275 58.9941 9.29015C59.1401 8.87755 59.4161 8.49083 59.8229 8.12999H58.445Z" fill="white"/>
<path d="M75.7649 4.8513C75.7649 4.68813 75.8281 4.5494 75.9568 4.43223C76.084 4.31651 76.2414 4.25828 76.4276 4.25828H85.5493C85.7355 4.25828 85.8922 4.32226 86.0209 4.4502C86.1481 4.57815 86.2121 4.72335 86.2121 4.8858C86.1768 5.54927 86.1078 6.31624 86.0029 7.18816C85.8987 8.06079 85.7822 8.89246 85.6543 9.68243H87.5548C87.7302 9.68243 87.8833 9.74066 88.0177 9.8571C88.1507 9.97355 88.2176 10.113 88.2176 10.2755V10.6068C88.2176 10.7815 88.1507 10.9238 88.0177 11.0345C87.8833 11.1452 87.7302 11.2006 87.5548 11.2006H82.2183V13.7638H85.3229C85.4968 13.7638 85.6514 13.8221 85.7844 13.9385C85.9181 14.055 85.9856 14.1944 85.9856 14.3569V18.8918C85.9856 19.0658 85.9181 19.2088 85.7844 19.3188C85.6514 19.4295 85.4968 19.4849 85.3229 19.4849H84.7299C84.5437 19.4849 84.3863 19.4295 84.2583 19.3188C84.1311 19.2088 84.0671 19.0658 84.0671 18.8918V15.246H76.7065C76.5203 15.246 76.3636 15.1914 76.2357 15.0807C76.1077 14.9707 76.0438 14.8277 76.0438 14.6537V14.3569C76.0438 14.1944 76.1077 14.055 76.2357 13.9385C76.3636 13.8221 76.5203 13.7638 76.7065 13.7638H80.1949V11.2006H74.4918C74.3057 11.2006 74.1483 11.1452 74.0203 11.0345C73.8924 10.9238 73.8291 10.7815 73.8291 10.6068V10.2755C73.8291 10.113 73.8924 9.97355 74.0203 9.8571C74.1483 9.74066 74.3057 9.68243 74.4918 9.68243H83.6833C83.7875 9.08941 83.8867 8.44679 83.9802 7.7553C84.0729 7.0638 84.1419 6.40393 84.1893 5.77569H76.4276C76.2414 5.77569 76.084 5.72034 75.9568 5.61037C75.8281 5.49967 75.7649 5.35734 75.7649 5.18267V4.8513Z" fill="white"/>
<path d="M94.2345 11.2005H100.2V8.5495H94.2345V11.2005ZM94.2345 7.03137H100.2V4.74696C100.2 4.58379 100.264 4.44433 100.391 4.32788C100.519 4.21215 100.677 4.15397 100.863 4.15397H101.456C101.63 4.15397 101.784 4.21215 101.917 4.32788C102.051 4.44433 102.118 4.58379 102.118 4.74696V12.1241C102.118 12.2988 102.051 12.4411 101.917 12.5518C101.784 12.6625 101.63 12.7178 101.456 12.7178H98.3512V15.8217H103.688C103.863 15.8217 104.016 15.8806 104.151 15.9964C104.284 16.1128 104.35 16.2523 104.35 16.4154V16.7468C104.35 16.9208 104.284 17.0631 104.151 17.1738C104.016 17.2845 103.863 17.3398 103.688 17.3398H90.6247C90.4385 17.3398 90.2811 17.2845 90.1531 17.1738C90.0252 17.0631 89.9619 16.9208 89.9619 16.7468V16.4154C89.9619 16.2523 90.0252 16.1128 90.1531 15.9964C90.2811 15.8806 90.4385 15.8217 90.6247 15.8217H96.3277V12.7178H92.9788C92.7926 12.7178 92.6352 12.6625 92.5079 12.5518C92.38 12.4411 92.316 12.2988 92.316 12.1241V4.74696C92.316 4.58379 92.38 4.44433 92.5079 4.32788C92.6352 4.21215 92.7926 4.15397 92.9788 4.15397H93.5718C93.7457 4.15397 93.9003 4.21215 94.034 4.32788C94.1677 4.44433 94.2345 4.58379 94.2345 4.74696V7.03137Z" fill="white"/>
<path d="M114.747 10.0837C114.561 10.0837 114.404 10.0284 114.276 9.91839C114.148 9.8077 114.085 9.66465 114.085 9.4907V9.17658C114.085 9.01413 114.148 8.87468 114.276 8.75823C114.404 8.6425 114.561 8.58356 114.747 8.58356H117.188V4.34545C117.188 4.183 117.252 4.04355 117.381 3.9271C117.509 3.81065 117.666 3.75243 117.851 3.75243H118.41C118.584 3.75243 118.738 3.81065 118.872 3.9271C119.006 4.04355 119.073 4.183 119.073 4.34545V14.3916C119.073 14.5662 119.006 14.7093 118.872 14.8192C118.738 14.9299 118.584 14.9846 118.41 14.9846H117.851C117.666 14.9846 117.509 14.9299 117.381 14.8192C117.252 14.7093 117.188 14.5662 117.188 14.3916V10.0837H114.747ZM119.351 18.6821C119.351 18.8568 119.284 18.9991 119.151 19.1098C119.017 19.2198 118.864 19.2759 118.689 19.2759H110.334C110.148 19.2759 109.992 19.2198 109.864 19.1098C109.735 18.9991 109.671 18.8568 109.671 18.6821V14.7409C109.671 14.5777 109.735 14.4383 109.864 14.3218C109.992 14.2061 110.148 14.1479 110.334 14.1479H110.928C111.102 14.1479 111.256 14.2061 111.39 14.3218C111.523 14.4383 111.59 14.5777 111.59 14.7409V17.7577H118.689C118.864 17.7577 119.017 17.816 119.151 17.9324C119.284 18.0489 119.351 18.1883 119.351 18.3508V18.6821ZM107.491 5.09589C107.491 4.93272 107.555 4.79327 107.684 4.67682C107.811 4.56037 107.967 4.50215 108.154 4.50215H114.014C114.223 4.50215 114.392 4.56972 114.521 4.70342C114.648 4.83712 114.701 4.99094 114.677 5.16489C114.538 6.25821 114.276 7.23795 113.893 8.10411C113.509 8.97028 113.031 9.74085 112.462 10.4151C111.881 11.0893 111.227 11.6859 110.5 12.2028C109.773 12.7203 108.997 13.171 108.172 13.5549C108.032 13.6131 107.916 13.6447 107.822 13.6505C107.73 13.6569 107.619 13.6066 107.491 13.5024L107.177 13.258C106.899 13.0488 106.782 12.8483 106.828 12.6563C106.875 12.4644 107.027 12.3163 107.282 12.2114C107.967 11.8865 108.608 11.4998 109.2 11.052C109.793 10.6041 110.323 10.1132 110.787 9.57768C111.241 9.0436 111.619 8.47358 111.922 7.86834C112.224 7.26454 112.438 6.64205 112.567 6.00231H108.154C107.967 6.00231 107.811 5.94768 107.684 5.83698C107.555 5.72629 107.491 5.58396 107.491 5.40929V5.09589Z" fill="white"/>
<path d="M126.502 8.65382H132.467V7.11919H126.502V8.65382ZM124.443 14.9672C124.443 14.8047 124.507 14.6653 124.636 14.5488C124.764 14.4331 124.92 14.3749 125.106 14.3749H133.723C133.897 14.3749 134.052 14.4331 134.185 14.5488C134.318 14.6653 134.385 14.8047 134.385 14.9672V18.8919C134.385 19.0666 134.318 19.2089 134.185 19.3196C134.052 19.4295 133.897 19.4849 133.723 19.4849H133.129C132.944 19.4849 132.786 19.4295 132.658 19.3196C132.531 19.2089 132.467 19.0666 132.467 18.8919V15.8923H125.106C124.92 15.8923 124.764 15.8369 124.636 15.7262C124.507 15.6163 124.443 15.4732 124.443 15.2992V14.9672ZM126.502 5.63625H132.467V4.48472C132.467 4.32227 132.531 4.18284 132.658 4.06639C132.786 3.95067 132.944 3.89244 133.129 3.89244H133.723C133.897 3.89244 134.052 3.95067 134.185 4.06639C134.318 4.18284 134.385 4.32227 134.385 4.48472V9.57822C134.385 9.75289 134.318 9.89521 134.185 10.0052C134.052 10.1159 133.897 10.1712 133.723 10.1712H130.618V11.6887H135.955C136.13 11.6887 136.283 11.7469 136.418 11.8633C136.551 11.9791 136.618 12.1192 136.618 12.2817V12.613C136.618 12.7877 136.551 12.9301 136.418 13.04C136.283 13.1507 136.13 13.2061 135.955 13.2061H122.891C122.705 13.2061 122.548 13.1507 122.42 13.04C122.292 12.9301 122.229 12.7877 122.229 12.613V12.2817C122.229 12.1192 122.292 11.9791 122.42 11.8633C122.548 11.7469 122.705 11.6887 122.891 11.6887H128.595V10.1712H125.246C125.06 10.1712 124.902 10.1159 124.775 10.0052C124.647 9.89521 124.583 9.75289 124.583 9.57822V4.48472C124.583 4.32227 124.647 4.18284 124.775 4.06639C124.902 3.95067 125.06 3.89244 125.246 3.89244H125.839C126.013 3.89244 126.168 3.95067 126.301 4.06639C126.435 4.18284 126.502 4.32227 126.502 4.48472V5.63625Z" fill="white"/>
<path d="M150.676 3.75249C150.85 3.75249 151.004 3.81072 151.139 3.92716C151.272 4.04361 151.339 4.18306 151.339 4.34551V18.6477C151.339 18.8224 151.272 18.9647 151.139 19.0747C151.004 19.1854 150.85 19.2407 150.676 19.2407H150.118C149.932 19.2407 149.775 19.1854 149.647 19.0747C149.519 18.9647 149.455 18.8224 149.455 18.6477V4.34551C149.455 4.18306 149.519 4.04361 149.647 3.92716C149.775 3.81072 149.932 3.75249 150.118 3.75249H150.676ZM146.647 4.78183C146.821 4.78183 146.976 4.84005 147.109 4.95578C147.243 5.07223 147.309 5.21168 147.309 5.37485V5.68825C147.309 5.86292 147.243 6.00525 147.109 6.11594C146.976 6.22664 146.821 6.28199 146.647 6.28199H144.431V8.25225C144.431 8.78705 144.52 9.33119 144.694 9.88324C144.868 10.436 145.101 10.9679 145.391 11.4797C145.694 11.9908 146.039 12.4702 146.429 12.9181C146.819 13.3659 147.234 13.7526 147.676 14.0782C147.862 14.2177 147.955 14.3744 147.955 14.549C147.955 14.7237 147.868 14.8804 147.694 15.0199L147.38 15.2643C147.263 15.3577 147.118 15.4095 146.944 15.421C146.769 15.4332 146.624 15.3922 146.507 15.2988C146.24 15.1018 145.96 14.8689 145.671 14.6015C145.379 14.3341 145.101 14.0372 144.833 13.7116C144.566 13.3975 144.316 13.0575 144.083 12.6916C143.851 12.325 143.664 11.9441 143.525 11.5487C143.176 12.4681 142.696 13.2667 142.086 13.9474C141.476 14.6274 140.885 15.183 140.315 15.6129C140.21 15.6941 140.086 15.7466 139.94 15.7696C139.795 15.7933 139.67 15.7638 139.566 15.6826L139.147 15.4037C138.938 15.2758 138.819 15.1191 138.789 14.9329C138.761 14.7467 138.851 14.5835 139.06 14.4448C140.083 13.6886 140.914 12.7642 141.555 11.6709C142.193 10.5783 142.514 9.43829 142.514 8.25225V6.28199H140.141C139.955 6.28199 139.798 6.22664 139.67 6.11594C139.543 6.00525 139.479 5.86292 139.479 5.68825V5.37485C139.479 5.21168 139.543 5.07223 139.67 4.95578C139.798 4.84005 139.955 4.78183 140.141 4.78183H146.647Z" fill="white"/>
<path d="M166.809 3.75243C166.983 3.75243 167.137 3.81065 167.271 3.9271C167.404 4.04355 167.472 4.183 167.472 4.34545V14.3916C167.472 14.5662 167.404 14.7093 167.271 14.8192C167.137 14.9299 166.983 14.9846 166.809 14.9846H166.251C166.064 14.9846 165.908 14.9299 165.78 14.8192C165.652 14.7093 165.588 14.5662 165.588 14.3916V4.34545C165.588 4.183 165.652 4.04355 165.78 3.9271C165.908 3.81065 166.064 3.75243 166.251 3.75243H166.809ZM167.751 18.6829C167.751 18.8568 167.684 18.9991 167.55 19.1098C167.416 19.2205 167.263 19.2759 167.088 19.2759H158.733C158.547 19.2759 158.39 19.2205 158.262 19.1098C158.134 18.9991 158.071 18.8568 158.071 18.6829V14.9328C158.071 14.7696 158.134 14.6302 158.262 14.5138C158.39 14.398 158.547 14.3398 158.733 14.3398H159.326C159.501 14.3398 159.655 14.398 159.788 14.5138C159.922 14.6302 159.989 14.7696 159.989 14.9328V17.7577H167.088C167.263 17.7577 167.416 17.816 167.55 17.9324C167.684 18.0489 167.751 18.1883 167.751 18.3515V18.6829ZM157.146 8.23494C157.146 8.88618 157.347 9.44182 157.748 9.90042C158.149 10.3597 158.635 10.5898 159.204 10.5898C159.762 10.5898 160.242 10.3597 160.643 9.90042C161.044 9.44182 161.245 8.88618 161.245 8.23494C161.245 7.92082 161.19 7.62179 161.079 7.33642C160.969 7.05177 160.821 6.80522 160.635 6.59533C160.448 6.38615 160.233 6.21795 159.989 6.08928C159.745 5.96205 159.484 5.89808 159.204 5.89808C158.635 5.89808 158.149 6.13098 157.748 6.59533C157.347 7.06112 157.146 7.60741 157.146 8.23494ZM163.216 8.25219C163.216 8.76398 163.111 9.24918 162.902 9.70922C162.692 10.1685 162.401 10.5725 162.03 10.9211C161.67 11.2698 161.245 11.5465 160.757 11.7492C160.268 11.9533 159.745 12.0547 159.187 12.0547C158.605 12.0547 158.068 11.9533 157.573 11.7492C157.079 11.5465 156.652 11.2698 156.291 10.9211C155.931 10.5725 155.649 10.1685 155.445 9.70922C155.242 9.24918 155.141 8.76398 155.141 8.25219C155.141 7.72889 155.242 7.23507 155.445 6.77C155.649 6.30493 155.931 5.89808 156.291 5.54946C156.652 5.20012 157.079 4.92122 157.573 4.71132C158.068 4.50215 158.605 4.39792 159.187 4.39792C159.745 4.39792 160.268 4.50215 160.757 4.71132C161.245 4.92122 161.67 5.20012 162.03 5.54946C162.401 5.89808 162.692 6.30493 162.902 6.77C163.111 7.23507 163.216 7.72889 163.216 8.25219Z" fill="white"/>
<path d="M180.483 10.3104V18.1419C180.483 18.3166 180.416 18.4582 180.282 18.5689C180.148 18.6796 179.994 18.7349 179.82 18.7349H179.384C179.198 18.7349 179.041 18.6796 178.913 18.5689C178.785 18.4582 178.721 18.3166 178.721 18.1419V4.59014C178.721 4.42697 178.785 4.28752 178.913 4.17107C179.041 4.05462 179.198 3.9964 179.384 3.9964H179.82C179.994 3.9964 180.148 4.05462 180.282 4.17107C180.416 4.28752 180.483 4.42697 180.483 4.59014V8.75781H182.035V4.34574C182.035 4.18257 182.098 4.04312 182.227 3.92668C182.354 3.81095 182.512 3.752 182.698 3.752H183.134C183.308 3.752 183.463 3.81095 183.596 3.92668C183.73 4.04312 183.796 4.18257 183.796 4.34574V18.6479C183.796 18.8219 183.73 18.9642 183.596 19.0749C183.463 19.1856 183.308 19.2402 183.134 19.2402H182.698C182.512 19.2402 182.354 19.1856 182.227 19.0749C182.098 18.9642 182.035 18.8219 182.035 18.6479V10.3104H180.483ZM176.907 4.79931C177.082 4.79931 177.235 4.85754 177.369 4.97327C177.502 5.08971 177.57 5.22916 177.57 5.39161V5.68848C177.57 5.86315 177.502 6.00548 177.369 6.11618C177.235 6.22615 177.082 6.2815 176.907 6.2815H175.477V8.5666C175.477 9.0899 175.541 9.61247 175.669 10.1358C175.796 10.6591 175.976 11.1651 176.21 11.6539C176.442 12.1535 176.712 12.6243 177.021 13.0664C177.328 13.5084 177.663 13.9038 178.023 14.2524C178.163 14.3804 178.223 14.5313 178.207 14.706C178.19 14.8799 178.11 15.0194 177.971 15.1243L177.657 15.3687C177.517 15.4852 177.357 15.5405 177.177 15.534C176.997 15.5283 176.843 15.4622 176.715 15.3335C176.32 14.9151 175.95 14.4587 175.608 13.9642C175.265 13.4703 174.948 12.8687 174.657 12.1592C174.401 12.9736 174.076 13.6651 173.68 14.2344C173.285 14.8044 172.884 15.299 172.476 15.7173C172.372 15.8216 172.241 15.8891 172.084 15.9179C171.928 15.9474 171.791 15.9265 171.674 15.8568L171.273 15.6304C171.064 15.5254 170.942 15.3831 170.907 15.2027C170.872 15.023 170.942 14.8512 171.116 14.688C171.954 13.8161 172.591 12.8514 173.026 11.7933C173.462 10.7353 173.68 9.6592 173.68 8.5666V6.2815H172.145C171.96 6.2815 171.803 6.22615 171.674 6.11618C171.546 6.00548 171.482 5.86315 171.482 5.68848V5.39161C171.482 5.22916 171.546 5.08971 171.674 4.97327C171.803 4.85754 171.96 4.79931 172.145 4.79931H176.907Z" fill="white"/>
<path d="M198.517 15.5952C198.331 15.5952 198.174 15.5406 198.047 15.4299C197.919 15.3192 197.855 15.1769 197.855 15.0022V14.4617H195.012C194.825 14.4617 194.669 14.4063 194.541 14.2956C194.413 14.1856 194.349 14.0433 194.349 13.8687V13.5898C194.349 13.4266 194.413 13.2871 194.541 13.1707C194.669 13.055 194.825 12.9967 195.012 12.9967H197.855V4.34584C197.855 4.18267 197.919 4.04322 198.047 3.92677C198.174 3.81033 198.331 3.7521 198.517 3.7521H199.059C199.233 3.7521 199.387 3.81033 199.521 3.92677C199.654 4.04322 199.721 4.18267 199.721 4.34584V15.0022C199.721 15.1769 199.654 15.3192 199.521 15.4299C199.387 15.5406 199.233 15.5952 199.059 15.5952H198.517ZM200 18.6653C200 18.8392 199.933 18.9816 199.8 19.0923C199.666 19.203 199.512 19.2583 199.337 19.2583H190.861C190.675 19.2583 190.518 19.203 190.39 19.0923C190.262 18.9816 190.198 18.8392 190.198 18.6653V16.0488C190.198 15.8864 190.262 15.7462 190.39 15.6305C190.518 15.514 190.675 15.4558 190.861 15.4558H191.436C191.611 15.4558 191.764 15.514 191.898 15.6305C192.032 15.7462 192.099 15.8864 192.099 16.0488V17.7581H199.337C199.512 17.7581 199.666 17.8164 199.8 17.9321C199.933 18.0485 200 18.188 200 18.3512V18.6653ZM190.198 7.10104C190.198 7.58984 190.378 8.01681 190.739 8.3834C191.099 8.75 191.535 8.93258 192.047 8.93258C192.546 8.93258 192.98 8.75 193.346 8.3834C193.712 8.01681 193.895 7.58984 193.895 7.10104C193.895 6.62447 193.712 6.20037 193.346 5.82803C192.98 5.4564 192.546 5.27023 192.047 5.27023C191.535 5.27023 191.099 5.4564 190.739 5.82803C190.378 6.20037 190.198 6.62447 190.198 7.10104ZM192.047 10.363C191.512 10.363 191.014 10.276 190.556 10.1014C190.096 9.92669 189.692 9.68877 189.343 9.38615C189.006 9.09575 188.741 8.75215 188.55 8.35681C188.358 7.96218 188.261 7.54311 188.261 7.10104C188.261 6.6712 188.358 6.26147 188.55 5.87188C188.741 5.48228 189.006 5.13653 189.343 4.83391C189.692 4.53129 190.096 4.29049 190.556 4.11007C191.014 3.92965 191.512 3.8398 192.047 3.8398C192.571 3.8398 193.061 3.92965 193.521 4.11007C193.98 4.29049 194.378 4.52626 194.716 4.81666C195.053 5.11856 195.323 5.46791 195.526 5.86253C195.73 6.2586 195.832 6.6712 195.832 7.10104C195.832 7.54311 195.73 7.96218 195.526 8.35681C195.323 8.75215 195.053 9.09575 194.716 9.38615C194.378 9.68877 193.98 9.92669 193.521 10.1014C193.061 10.276 192.571 10.363 192.047 10.363ZM192.709 14.4444C192.709 14.6184 192.642 14.7614 192.509 14.8714C192.375 14.9821 192.221 15.0374 192.047 15.0374H191.454C191.267 15.0374 191.111 14.9821 190.983 14.8714C190.855 14.7614 190.791 14.6184 190.791 14.4444V12.5777H187.948C187.762 12.5777 187.604 12.523 187.477 12.4123C187.349 12.3016 187.285 12.1593 187.285 11.9854V11.7057C187.285 11.5433 187.349 11.4038 187.477 11.2874C187.604 11.171 187.762 11.1127 187.948 11.1127H190.739C191.088 11.1127 191.489 11.1041 191.942 11.0869C192.395 11.0696 192.872 11.043 193.373 11.0085C193.872 10.9733 194.378 10.9266 194.889 10.8683C195.401 10.8108 195.896 10.7411 196.372 10.6592C196.582 10.6247 196.762 10.6685 196.914 10.79C197.065 10.9122 197.14 11.0667 197.14 11.2522V11.5318C197.14 11.6712 197.081 11.7992 196.965 11.9149C196.849 12.0314 196.721 12.1011 196.582 12.1241C196.093 12.206 195.518 12.2786 194.855 12.3426C194.191 12.4066 193.477 12.4555 192.709 12.4907V14.4444Z" fill="white"/>
<path d="M60.3486 24.1717H60.9093V25.9831L62.5791 24.1717H63.3245L61.4865 26.1183L63.4697 28.2891H62.6517L60.9093 26.2714V28.2891H60.3486V24.1717Z" fill="white"/>
<path d="M65.7397 27.8409C66.6411 27.8409 67.0286 27.0509 67.0286 26.2307C67.0286 25.3933 66.6023 24.6141 65.7397 24.6206C64.8764 24.6141 64.4509 25.3933 64.4509 26.2307C64.4509 27.0509 64.8376 27.8409 65.7397 27.8409ZM65.7397 24.1016C66.9279 24.1016 67.6223 25.0095 67.6223 26.2307C67.6223 27.4815 66.933 28.3599 65.7397 28.3599C64.5458 28.3599 63.8564 27.4815 63.8564 26.2307C63.8564 25.0095 64.5515 24.1016 65.7397 24.1016Z" fill="white"/>
<path d="M68.9447 25.9414H69.4206C69.9532 25.9414 70.2673 25.6934 70.2673 25.2988C70.2673 24.9272 69.9978 24.6907 69.4824 24.6907H68.9447V25.9414ZM68.3848 24.1717H69.3429C70.1157 24.1717 70.8611 24.3018 70.8611 25.2866C70.8611 25.7883 70.5074 26.142 70.0538 26.2246V26.2361C70.2278 26.3073 70.3119 26.3957 70.4348 26.6495L71.1752 28.2891H70.5362L69.9367 26.8615C69.7627 26.4604 69.578 26.4604 69.2804 26.4604H68.9447V28.2891H68.3848V24.1717Z" fill="white"/>
<path d="M71.8701 24.1717H74.0603V24.6907H72.4301V25.894H73.9151V26.4137H72.4301V27.7701H74.0603V28.2891H71.8701V24.1717Z" fill="white"/>
<path d="M76.4708 24.7264L75.6916 26.7671H77.2492L76.4708 24.7264ZM76.1962 24.1722H76.7849L78.4374 28.2896H77.8271L77.4289 27.2509H75.5126L75.1144 28.2896H74.5264L76.1962 24.1722Z" fill="white"/>
<path d="M80.5889 24.1717H81.1488V25.894H83.0213V24.1717H83.5813V28.2891H83.0213V26.4137H81.1488V28.2891H80.5889V24.1717Z" fill="white"/>
<path d="M87.6493 26.5844C87.6493 27.7402 87.0944 28.3599 86.1312 28.3599C85.1672 28.3599 84.6123 27.7402 84.6123 26.5844V24.1713H85.173V26.5075C85.173 27.2982 85.408 27.8409 86.1312 27.8409C86.8543 27.8409 87.0893 27.2982 87.0893 26.5075V24.1713H87.6493V26.5844Z" fill="white"/>
<path d="M88.6582 24.1717H89.5826L90.8103 27.5933L92.0151 24.1717H92.9394V28.2891H92.3795V24.7259H92.368L91.0734 28.2891H90.5242L89.2297 24.7259H89.2182V28.2891H88.6582V24.1717Z" fill="white"/>
<path d="M95.4551 24.7264L94.6759 26.7671H96.2343L95.4551 24.7264ZM95.1805 24.1722H95.7685L97.4218 28.2896H96.8115L96.4133 27.2509H94.497L94.0987 28.2896H93.5107L95.1805 24.1722Z" fill="white"/>
<path d="M97.9824 24.1717H98.7451L100.47 27.4869H100.482V24.1717H101.042V28.2891H100.325L98.5539 24.9035H98.5424V28.2891H97.9824V24.1717Z" fill="white"/>
<path d="M104.119 25.9414H104.595C105.127 25.9414 105.441 25.6934 105.441 25.2988C105.441 24.9272 105.172 24.6907 104.657 24.6907H104.119V25.9414ZM103.559 24.1717H104.517C105.29 24.1717 106.035 24.3018 106.035 25.2866C106.035 25.7883 105.682 26.142 105.228 26.2246V26.2361C105.402 26.3073 105.486 26.3957 105.609 26.6495L106.349 28.2891H105.711L105.111 26.8615C104.937 26.4604 104.753 26.4604 104.455 26.4604H104.119V28.2891H103.559V24.1717Z" fill="white"/>
<path d="M107.043 24.1717H109.234V24.6907H107.603V25.894H109.089V26.4137H107.603V27.7701H109.234V28.2891H107.043V24.1717Z" fill="white"/>
<path d="M111.908 24.7912C111.622 24.6733 111.466 24.6201 111.174 24.6201C110.86 24.6201 110.49 24.738 110.49 25.1686C110.49 25.9593 112.172 25.7767 112.172 27.1331C112.172 28.0122 111.527 28.3594 110.743 28.3594C110.468 28.3594 110.198 28.2774 109.941 28.189L109.997 27.6406C110.188 27.7225 110.524 27.8404 110.809 27.8404C111.129 27.8404 111.577 27.6521 111.577 27.1683C111.577 26.2482 109.896 26.502 109.896 25.2218C109.896 24.49 110.445 24.1011 111.152 24.1011C111.41 24.1011 111.717 24.1479 111.987 24.2485L111.908 24.7912Z" fill="white"/>
<path d="M114.614 27.8409C115.516 27.8409 115.903 27.0509 115.903 26.2307C115.903 25.3933 115.477 24.6141 114.614 24.6206C113.751 24.6141 113.325 25.3933 113.325 26.2307C113.325 27.0509 113.712 27.8409 114.614 27.8409ZM114.614 24.1016C115.802 24.1016 116.497 25.0095 116.497 26.2307C116.497 27.4815 115.807 28.3599 114.614 28.3599C113.42 28.3599 112.731 27.4815 112.731 26.2307C112.731 25.0095 113.427 24.1016 114.614 24.1016Z" fill="white"/>
<path d="M120.335 26.5844C120.335 27.7402 119.78 28.3599 118.816 28.3599C117.853 28.3599 117.298 27.7402 117.298 26.5844V24.1713H117.858V26.5075C117.858 27.2982 118.094 27.8409 118.816 27.8409C119.54 27.8409 119.775 27.2982 119.775 26.5075V24.1713H120.335V26.5844Z" fill="white"/>
<path d="M121.866 25.9414H122.341C122.874 25.9414 123.188 25.6934 123.188 25.2988C123.188 24.9272 122.919 24.6907 122.404 24.6907H121.866V25.9414ZM121.306 24.1717H122.264C123.037 24.1717 123.782 24.3018 123.782 25.2866C123.782 25.7883 123.429 26.142 122.975 26.2246V26.2361C123.149 26.3073 123.234 26.3957 123.356 26.6495L124.096 28.2891H123.457L122.858 26.8615C122.684 26.4604 122.499 26.4604 122.201 26.4604H121.866V28.2891H121.306V24.1717Z" fill="white"/>
<path d="M127.463 24.8504C127.217 24.6973 126.942 24.6204 126.657 24.6204C125.754 24.6204 125.155 25.3047 125.155 26.2305C125.155 27.198 125.816 27.8407 126.628 27.8407C126.909 27.8407 127.284 27.7645 127.48 27.6408L127.513 28.2123C127.217 28.3424 126.852 28.3604 126.623 28.3604C125.384 28.3604 124.561 27.5222 124.561 26.2133C124.561 24.9446 125.435 24.1014 126.628 24.1014C126.931 24.1014 127.228 24.1481 127.508 24.2782L127.463 24.8504Z" fill="white"/>
<path d="M128.214 24.1717H130.405V24.6907H128.775V25.894H130.26V26.4137H128.775V27.7701H130.405V28.2891H128.214V24.1717Z" fill="white"/>
<path d="M133.386 27.7701H133.975C134.938 27.7701 135.471 27.2806 135.471 26.2189C135.471 25.2571 134.849 24.6907 134.042 24.6907H133.386V27.7701ZM132.826 24.1717H133.98C135.14 24.1717 136.065 24.9272 136.065 26.1952C136.065 27.5753 135.269 28.2891 133.98 28.2891H132.826V24.1717Z" fill="white"/>
<path d="M136.934 24.1717H139.125V24.6907H137.494V25.894H138.979V26.4137H137.494V27.7701H139.125V28.2891H136.934V24.1717Z" fill="white"/>
<path d="M141.73 28.2891H141.03L139.556 24.1717H140.183L141.389 27.7701H141.399L142.638 24.1717H143.227L141.73 28.2891Z" fill="white"/>
<path d="M143.786 24.1717H145.977V24.6907H144.346V25.894H145.832V26.4137H144.346V27.7701H145.977V28.2891H143.786V24.1717Z" fill="white"/>
<path d="M146.868 24.1717H147.428V27.7701H149.065V28.2891H146.868V24.1717Z" fill="white"/>
<path d="M151.357 27.8409C152.259 27.8409 152.646 27.0509 152.646 26.2307C152.646 25.3933 152.22 24.6141 151.357 24.6206C150.494 24.6141 150.068 25.3933 150.068 26.2307C150.068 27.0509 150.455 27.8409 151.357 27.8409ZM151.357 24.1016C152.545 24.1016 153.24 25.0095 153.24 26.2307C153.24 27.4815 152.55 28.3599 151.357 28.3599C150.163 28.3599 149.475 27.4815 149.475 26.2307C149.475 25.0095 150.169 24.1016 151.357 24.1016Z" fill="white"/>
<path d="M154.563 26.1245H155.118C155.465 26.1245 155.902 25.9419 155.902 25.3992C155.902 24.8802 155.387 24.6912 155.039 24.6912H154.563V26.1245ZM154.003 24.1722H155.028C155.829 24.1722 156.496 24.4669 156.496 25.405C156.496 26.3193 155.818 26.6435 155.111 26.6435H154.563V28.2896H154.003V24.1722Z" fill="white"/>
<path d="M157.157 24.1717H158.082L159.309 27.5933L160.514 24.1717H161.438V28.2891H160.879V24.7259H160.867L159.572 28.2891H159.023L157.729 24.7259H157.717V28.2891H157.157V24.1717Z" fill="white"/>
<path d="M162.47 24.1717H164.661V24.6907H163.03V25.894H164.515V26.4137H163.03V27.7701H164.661V28.2891H162.47V24.1717Z" fill="white"/>
<path d="M165.552 24.1717H166.314L168.04 27.4869H168.05V24.1717H168.611V28.2891H167.894L166.123 24.9035H166.112V28.2891H165.552V24.1717Z" fill="white"/>
<path d="M170.381 24.6907H169.165V24.1717H172.157V24.6907H170.941V28.2891H170.381V24.6907Z" fill="white"/>
<path d="M174.275 24.1717H174.836V28.2891H174.275V24.1717Z" fill="white"/>
<path d="M175.829 24.1717H176.591L178.317 27.4869H178.328V24.1717H178.888V28.2891H178.171L176.4 24.9035H176.389V28.2891H175.829V24.1717Z" fill="white"/>
<path d="M181.656 24.7912C181.37 24.6733 181.214 24.6201 180.922 24.6201C180.608 24.6201 180.238 24.738 180.238 25.1686C180.238 25.9593 181.919 25.7767 181.919 27.1331C181.919 28.0122 181.275 28.3594 180.49 28.3594C180.215 28.3594 179.946 28.2774 179.689 28.189L179.744 27.6406C179.936 27.7225 180.272 27.8404 180.557 27.8404C180.877 27.8404 181.325 27.6521 181.325 27.1683C181.325 26.2482 179.645 26.502 179.645 25.2218C179.645 24.49 180.193 24.1011 180.9 24.1011C181.157 24.1011 181.465 24.1479 181.735 24.2485L181.656 24.7912Z" fill="white"/>
<path d="M183.46 24.6907H182.244V24.1717H185.237V24.6907H184.02V28.2891H183.46V24.6907Z" fill="white"/>
<path d="M185.798 24.1717H186.358V28.2891H185.798V24.1717Z" fill="white"/>
<path d="M188.134 24.6907H186.918V24.1717H189.91V24.6907H188.694V28.2891H188.134V24.6907Z" fill="white"/>
<path d="M193.513 26.5844C193.513 27.7402 192.958 28.3599 191.994 28.3599C191.031 28.3599 190.476 27.7402 190.476 26.5844V24.1713H191.036V26.5075C191.036 27.2982 191.271 27.8409 191.994 27.8409C192.718 27.8409 192.953 27.2982 192.953 26.5075V24.1713H193.513V26.5844Z" fill="white"/>
<path d="M195.295 24.6907H194.079V24.1717H197.072V24.6907H195.855V28.2891H195.295V24.6907Z" fill="white"/>
<path d="M197.66 24.1717H199.851V24.6907H198.22V25.894H199.705V26.4137H198.22V27.7701H199.851V28.2891H197.66V24.1717Z" fill="white"/>
<path d="M60.2871 31.3778H62.3659V31.8967H60.8478V33.1H62.2991V33.619H60.8478V35.4951H60.2871V31.3778Z" fill="white"/>
<path d="M64.8035 35.0464C65.7056 35.0464 66.0923 34.2558 66.0923 33.4363C66.0923 32.5989 65.6668 31.8197 64.8035 31.8255C63.9402 31.8197 63.5146 32.5989 63.5146 33.4363C63.5146 34.2558 63.9014 35.0464 64.8035 35.0464ZM64.8035 31.3072C65.9917 31.3072 66.686 32.215 66.686 33.4363C66.686 34.6863 65.9974 35.5654 64.8035 35.5654C63.6102 35.5654 62.9209 34.6863 62.9209 33.4363C62.9209 32.215 63.616 31.3072 64.8035 31.3072Z" fill="white"/>
<path d="M68.0092 33.1475H68.485C69.0177 33.1475 69.3318 32.8995 69.3318 32.5041C69.3318 32.1325 69.063 31.8967 68.5468 31.8967H68.0092V33.1475ZM67.4492 31.3778H68.4074C69.1801 31.3778 69.9255 31.5072 69.9255 32.4926C69.9255 32.9937 69.5726 33.348 69.119 33.4307V33.4422C69.2923 33.5134 69.3771 33.6018 69.5 33.8555L70.2396 35.4951H69.6006L69.0011 34.0676C68.8272 33.6665 68.6424 33.6665 68.3449 33.6665H68.0092V35.4951H67.4492V31.3778Z" fill="white"/>
<path d="M72.4912 31.3778H73.0519V33.1H74.9237V31.3778H75.4836V35.4951H74.9237V33.619H73.0519V35.4951H72.4912V31.3778Z" fill="white"/>
<path d="M76.5371 31.3778H78.728V31.8967H77.0978V33.1H78.5828V33.619H77.0978V34.9761H78.728V35.4951H76.5371V31.3778Z" fill="white"/>
<path d="M81.1387 31.9325L80.3595 33.9732H81.9172L81.1387 31.9325ZM80.8641 31.3783H81.4521L83.1054 35.4956H82.4951L82.0969 34.4569H80.1805L79.7823 35.4956H79.1943L80.8641 31.3783Z" fill="white"/>
<path d="M83.666 31.3778H84.226V34.9761H85.8627V35.4951H83.666V31.3778Z" fill="white"/>
<path d="M86.943 31.8967H85.7275V31.3778H88.7192V31.8967H87.5037V35.4951H86.943V31.8967Z" fill="white"/>
<path d="M89.3086 31.3778H89.8685V33.1H91.7411V31.3778H92.301V35.4951H91.7411V33.619H89.8685V35.4951H89.3086V31.3778Z" fill="white"/>
<path d="M96.1955 32.982C96.4313 32.8641 96.7842 32.6104 96.7842 32.2625C96.7842 31.8851 96.588 31.755 96.3184 31.755C96.0618 31.755 95.8483 31.9318 95.8483 32.2862C95.8483 32.563 96.028 32.7872 96.1955 32.982ZM96.212 35.1176C96.5765 35.1176 96.8122 34.8696 96.9359 34.7223L95.9942 33.5599C95.6973 33.7727 95.4443 33.9675 95.4443 34.3744C95.4443 34.8286 95.8088 35.1176 96.212 35.1176ZM98.017 33.271C97.9666 33.9373 97.7927 34.3212 97.5684 34.6806L98.252 35.495H97.5519L97.2327 35.0939C96.9524 35.4303 96.6102 35.5654 96.1121 35.5654C95.3379 35.5654 94.8506 35.1054 94.8506 34.4153C94.8506 33.79 95.1985 33.4363 95.7247 33.212C95.5176 32.9468 95.3214 32.6693 95.3214 32.274C95.3214 31.6134 95.7814 31.3072 96.3414 31.3072C96.851 31.3072 97.3104 31.5904 97.3104 32.2388C97.3104 32.7642 96.8683 33.1179 96.4535 33.3127L97.2493 34.268C97.4009 34.0142 97.462 33.7432 97.4901 33.271H98.017Z" fill="white"/>
<path d="M100 31.3778H100.616L101.552 34.905H101.563L102.398 31.3778H103.194L104.04 34.905H104.051L104.987 31.3778H105.581L104.376 35.4951H103.654L102.802 31.8967H102.79L101.934 35.4951H101.182L100 31.3778Z" fill="white"/>
<path d="M106.119 31.3778H108.31V31.8967H106.679V33.1H108.164V33.619H106.679V34.9761H108.31V35.4951H106.119V31.3778Z" fill="white"/>
<path d="M109.201 31.3778H109.761V34.9761H111.398V35.4951H109.201V31.3778Z" fill="white"/>
<path d="M111.976 31.3778H114.055V31.8967H112.536V33.1H113.988V33.619H112.536V35.4951H111.976V31.3778Z" fill="white"/>
<path d="M116.117 31.9325L115.338 33.9732H116.896L116.117 31.9325ZM115.843 31.3783H116.431L118.084 35.4956H117.474L117.075 34.4569H115.159L114.761 35.4956H114.173L115.843 31.3783Z" fill="white"/>
<path d="M119.177 33.1475H119.653C120.185 33.1475 120.499 32.8995 120.499 32.5041C120.499 32.1325 120.23 31.8967 119.715 31.8967H119.177V33.1475ZM118.616 31.3778H119.574C120.348 31.3778 121.093 31.5072 121.093 32.4926C121.093 32.9937 120.74 33.348 120.286 33.4307V33.4422C120.46 33.5134 120.544 33.6018 120.667 33.8555L121.407 35.4951H120.768L120.169 34.0676C119.995 33.6665 119.81 33.6665 119.513 33.6665H119.177V35.4951H118.616V31.3778Z" fill="white"/>
<path d="M122.103 31.3778H124.293V31.8967H122.662V33.1H124.148V33.619H122.662V34.9761H124.293V35.4951H122.103V31.3778Z" fill="white"/>
</g>
<defs>
<radialGradient id="paint0_radial_730_569" cx="0" cy="0" r="1" gradientUnits="userSpaceOnUse" gradientTransform="translate(17.2629 0.726145) scale(34.097 34.097)">
<stop stop-color="#F7905B"/>
<stop offset="0.376404" stop-color="#F1471D"/>
<stop offset="0.668988" stop-color="#D91920"/>
<stop offset="0.730337" stop-color="#D91920"/>
<stop offset="1" stop-color="#B3161C"/>
</radialGradient>
<linearGradient id="paint1_linear_730_569" x1="30.2483" y1="15.9726" x2="46.4937" y2="35.2106" gradientUnits="userSpaceOnUse">
<stop stop-color="#FDDD04"/>
<stop offset="1" stop-color="#F68712"/>
</linearGradient>
<clipPath id="clip0_730_569">
<rect width="200" height="38.0127" fill="white" transform="matrix(1 0 0 -1 0 38.0127)"/>
</clipPath>
</defs>
</svg>
