<svg width="2687" height="2855" viewBox="0 0 2687 2855" fill="none" xmlns="http://www.w3.org/2000/svg">
<path d="M1031.97 607.067C966.018 738.216 888.462 832.07 790.937 939.094C669.448 1072.51 525.778 1191.08 394.36 1314.03C120.026 1570.72 -100.553 1845.75 47.5967 2312.54C245.4 2935.53 1183.9 3029.11 1912.94 2551.36C2253.87 2360.41 2539.48 1985.8 2644.78 1611.08C2750.08 1235.72 2644.13 781.282 2452.54 451.574C2292.78 176.647 2051.86 1.40329 1733.86 4.93407e-05C1732.73 4.93407e-05 1731.59 4.93407e-05 1730.46 4.93407e-05C1337.77 4.93407e-05 1194.91 283.565 1031.97 607.067Z" fill="#B70002"/>
</svg>
