<svg width="42" height="42" viewBox="0 0 42 42" fill="none" xmlns="http://www.w3.org/2000/svg">
<path d="M21.0041 23.2523C20.0968 23.2523 19.3354 22.9303 18.7198 22.2862C18.1041 21.6423 17.7962 20.8649 17.7962 19.9541V14.0016C17.7962 13.1215 18.1059 12.3702 18.7252 11.7478C19.3443 11.1256 20.1016 10.8145 20.997 10.8145C21.8923 10.8145 22.652 11.1256 23.2762 11.7478C23.9002 12.3702 24.2122 13.1215 24.2122 14.0016V19.9541C24.2122 20.8649 23.9044 21.6423 23.2888 22.2862C22.6731 22.9303 21.9115 23.2523 21.0041 23.2523ZM19.9169 30.7122V27.4793C17.9948 27.2633 16.4073 26.4404 15.1545 25.0106C13.9017 23.5808 13.2754 21.8953 13.2754 19.9541H15.45C15.45 21.4831 15.9915 22.7759 17.0746 23.8328C18.1578 24.8896 19.4678 25.418 21.0046 25.418C22.5415 25.418 23.8498 24.8889 24.9297 23.8308C26.0095 22.7727 26.5494 21.4805 26.5494 19.9541H28.724C28.724 21.8992 28.0945 23.5856 26.8355 25.0135C25.5766 26.4414 23.9907 27.263 22.0776 27.4783V30.7122H19.9169ZM20.9987 20.9083C21.2481 20.9083 21.4539 20.8154 21.6161 20.6295C21.7781 20.4437 21.8591 20.2185 21.8591 19.9541V14.0029C21.8591 13.7684 21.7757 13.569 21.6088 13.4047C21.4419 13.2406 21.2395 13.1585 21.0016 13.1585C20.7639 13.1585 20.5609 13.2406 20.3925 13.4047C20.2243 13.569 20.1403 13.7684 20.1403 14.0029V19.9541C20.1403 20.2185 20.2209 20.4437 20.3823 20.6295C20.5437 20.8154 20.7492 20.9083 20.9987 20.9083Z" fill="white"/>
</svg>
