<svg width="36" height="36" viewBox="0 0 36 36" fill="none" xmlns="http://www.w3.org/2000/svg">
<path d="M18.0035 19.9316C17.2259 19.9316 16.5732 19.6555 16.0456 19.1034C15.5178 18.5515 15.2539 17.8852 15.2539 17.1045V12.0024C15.2539 11.2479 15.5193 10.604 16.0502 10.0705C16.5809 9.53717 17.2299 9.27051 17.9974 9.27051C18.7648 9.27051 19.416 9.53717 19.951 10.0705C20.4859 10.604 20.7533 11.2479 20.7533 12.0024V17.1045C20.7533 17.8852 20.4895 18.5515 19.9618 19.1034C19.434 19.6555 18.7813 19.9316 18.0035 19.9316ZM17.0716 26.3257V23.5547C15.4241 23.3695 14.0634 22.6642 12.9895 21.4386C11.9158 20.2131 11.3789 18.7684 11.3789 17.1045H13.2429C13.2429 18.415 13.707 19.5232 14.6354 20.4291C15.5638 21.3349 16.6867 21.7878 18.0039 21.7878C19.3213 21.7878 20.4427 21.3343 21.3683 20.4274C22.2938 19.5204 22.7566 18.4128 22.7566 17.1045H24.6206C24.6206 18.7717 24.081 20.2172 23.0018 21.4411C21.9228 22.665 20.5634 23.3693 18.9237 23.5538V26.3257H17.0716ZM17.9989 17.9224C18.2127 17.9224 18.389 17.8427 18.5281 17.6834C18.667 17.5241 18.7364 17.3311 18.7364 17.1045V12.0034C18.7364 11.8025 18.6649 11.6315 18.5218 11.4907C18.3788 11.35 18.2053 11.2797 18.0014 11.2797C17.7977 11.2797 17.6236 11.35 17.4793 11.4907C17.3352 11.6315 17.2631 11.8025 17.2631 12.0034V17.1045C17.2631 17.3311 17.3322 17.5241 17.4706 17.6834C17.6089 17.8427 17.785 17.9224 17.9989 17.9224Z" fill="white"/>
<rect x="11" y="11" width="14" height="14" rx="2" fill="white"/>
</svg>
